{
	"asset":{
		"generator":"Khronos glTF Blender I/O v5.1.18",
		"version":"2.0"
	},
	"scene":0,
	"scenes":[
		{
			"name":"Scene",
			"nodes":[
				1
			]
		}
	],
	"nodes":[
		{
			"mesh":0,
			"name":"part",
			"rotation":[
				0,
				-0.7071068286895752,
				0,
				0.7071068286895752
			],
			"translation":[
				120.5303955078125,
				0.008065826259553432,
				-13.502166748046875
			]
		},
		{
			"children":[
				0
			],
			"name":"Empty"
		}
	],
	"materials":[
		{
			"doubleSided":true,
			"name":"bake",
			"pbrMetallicRoughness":{
				"baseColorTexture":{
					"index":0
				},
				"metallicFactor":0,
				"roughnessFactor":0.5
			}
		}
	],
	"meshes":[
		{
			"name":"3005.002",
			"primitives":[
				{
					"attributes":{
						"POSITION":0,
						"NORMAL":1,
						"TEXCOORD_0":2
					},
					"indices":3,
					"material":0
				}
			]
		}
	],
	"textures":[
		{
			"sampler":0,
			"source":0
		}
	],
	"images":[
		{
			"mimeType":"image/png",
			"name":"Untitled",
			"uri":"Untitled.png"
		}
	],
	"accessors":[
		{
			"bufferView":0,
			"componentType":5126,
			"count":525256,
			"max":[
				156.57662963867188,
				165.40948486328125,
				248.77011108398438
			],
			"min":[
				-117.66183471679688,
				-59.004241943359375,
				-265.2305908203125
			],
			"type":"VEC3"
		},
		{
			"bufferView":1,
			"componentType":5126,
			"count":525256,
			"type":"VEC3"
		},
		{
			"bufferView":2,
			"componentType":5126,
			"count":525256,
			"type":"VEC2"
		},
		{
			"bufferView":3,
			"componentType":5125,
			"count":763134,
			"type":"SCALAR"
		}
	],
	"bufferViews":[
		{
			"buffer":0,
			"byteLength":6303072,
			"byteOffset":0,
			"target":34962
		},
		{
			"buffer":0,
			"byteLength":6303072,
			"byteOffset":6303072,
			"target":34962
		},
		{
			"buffer":0,
			"byteLength":4202048,
			"byteOffset":12606144,
			"target":34962
		},
		{
			"buffer":0,
			"byteLength":3052536,
			"byteOffset":16808192,
			"target":34963
		}
	],
	"samplers":[
		{
			"magFilter":9729,
			"minFilter":9987
		}
	],
	"buffers":[
		{
			"byteLength":19860728,
			"uri":"botanical-garden.bin"
		}
	]
}
