{
	"asset":{
		"generator":"Khronos glTF Blender I/O v5.1.18",
		"version":"2.0"
	},
	"scene":0,
	"scenes":[
		{
			"name":"Scene",
			"nodes":[
				1
			]
		}
	],
	"nodes":[
		{
			"mesh":0,
			"name":"part"
		},
		{
			"children":[
				0
			],
			"name":"Empty"
		}
	],
	"materials":[
		{
			"doubleSided":true,
			"name":"bake",
			"pbrMetallicRoughness":{
				"baseColorTexture":{
					"index":0
				},
				"metallicFactor":0,
				"roughnessFactor":0.5
			}
		}
	],
	"meshes":[
		{
			"name":"27186.001",
			"primitives":[
				{
					"attributes":{
						"POSITION":0,
						"NORMAL":1,
						"TEXCOORD_0":2
					},
					"indices":3,
					"material":0
				}
			]
		}
	],
	"textures":[
		{
			"sampler":0,
			"source":0
		}
	],
	"images":[
		{
			"mimeType":"image/png",
			"name":"Untitled",
			"uri":"Untitled.png"
		}
	],
	"accessors":[
		{
			"bufferView":0,
			"componentType":5126,
			"count":557314,
			"max":[
				135.96005249023438,
				300.5800476074219,
				204.97996520996094
			],
			"min":[
				-127.98007202148438,
				-0.4234733581542969,
				-127.92147827148438
			],
			"type":"VEC3"
		},
		{
			"bufferView":1,
			"componentType":5126,
			"count":557314,
			"type":"VEC3"
		},
		{
			"bufferView":2,
			"componentType":5126,
			"count":557314,
			"type":"VEC2"
		},
		{
			"bufferView":3,
			"componentType":5125,
			"count":788202,
			"type":"SCALAR"
		}
	],
	"bufferViews":[
		{
			"buffer":0,
			"byteLength":6687768,
			"byteOffset":0,
			"target":34962
		},
		{
			"buffer":0,
			"byteLength":6687768,
			"byteOffset":6687768,
			"target":34962
		},
		{
			"buffer":0,
			"byteLength":4458512,
			"byteOffset":13375536,
			"target":34962
		},
		{
			"buffer":0,
			"byteLength":3152808,
			"byteOffset":17834048,
			"target":34963
		}
	],
	"samplers":[
		{
			"magFilter":9729,
			"minFilter":9987
		}
	],
	"buffers":[
		{
			"byteLength":20986856,
			"uri":"jazz-club.bin"
		}
	]
}
