{
	"asset":{
		"generator":"Khronos glTF Blender I/O v5.1.18",
		"version":"2.0"
	},
	"scene":0,
	"scenes":[
		{
			"name":"Scene",
			"nodes":[
				1
			]
		}
	],
	"nodes":[
		{
			"mesh":0,
			"name":"part.1599",
			"rotation":[
				0.7071068286895752,
				0,
				0,
				0.7071068286895752
			],
			"translation":[
				-8,
				148.60000610351562,
				52.00000762939453
			]
		},
		{
			"children":[
				0
			],
			"name":"Empty"
		}
	],
	"materials":[
		{
			"doubleSided":true,
			"name":"bake",
			"pbrMetallicRoughness":{
				"baseColorTexture":{
					"index":0
				},
				"metallicFactor":0,
				"roughnessFactor":0.5
			}
		}
	],
	"meshes":[
		{
			"name":"6182.003",
			"primitives":[
				{
					"attributes":{
						"POSITION":0,
						"NORMAL":1,
						"TEXCOORD_0":2
					},
					"indices":3,
					"material":0
				}
			]
		}
	],
	"textures":[
		{
			"sampler":0,
			"source":0
		}
	],
	"images":[
		{
			"mimeType":"image/png",
			"name":"Untitled",
			"uri":"Untitled.png"
		}
	],
	"accessors":[
		{
			"bufferView":0,
			"componentType":5126,
			"count":1139891,
			"max":[
				135.9600067138672,
				78.83197784423828,
				148.5800018310547
			],
			"min":[
				-120.08180236816406,
				-187.96009826660156,
				-214.34609985351562
			],
			"type":"VEC3"
		},
		{
			"bufferView":1,
			"componentType":5126,
			"count":1139891,
			"type":"VEC3"
		},
		{
			"bufferView":2,
			"componentType":5126,
			"count":1139891,
			"type":"VEC2"
		},
		{
			"bufferView":3,
			"componentType":5125,
			"count":1413969,
			"type":"SCALAR"
		}
	],
	"bufferViews":[
		{
			"buffer":0,
			"byteLength":13678692,
			"byteOffset":0,
			"target":34962
		},
		{
			"buffer":0,
			"byteLength":13678692,
			"byteOffset":13678692,
			"target":34962
		},
		{
			"buffer":0,
			"byteLength":9119128,
			"byteOffset":27357384,
			"target":34962
		},
		{
			"buffer":0,
			"byteLength":5655876,
			"byteOffset":36476512,
			"target":34963
		}
	],
	"samplers":[
		{
			"magFilter":9729,
			"minFilter":9987
		}
	],
	"buffers":[
		{
			"byteLength":42132388,
			"uri":"cafe-corner.bin"
		}
	]
}
