{
	"asset":{
		"generator":"Khronos glTF Blender I/O v5.1.18",
		"version":"2.0"
	},
	"scene":0,
	"scenes":[
		{
			"name":"Scene",
			"nodes":[
				1
			]
		}
	],
	"nodes":[
		{
			"mesh":0,
			"name":"part",
			"rotation":[
				0,
				-1,
				0,
				1.6292068494294654e-07
			],
			"translation":[
				10,
				0,
				-8
			]
		},
		{
			"children":[
				0
			],
			"name":"Empty"
		}
	],
	"materials":[
		{
			"doubleSided":true,
			"name":"bake",
			"pbrMetallicRoughness":{
				"baseColorTexture":{
					"index":0
				},
				"metallicFactor":0,
				"roughnessFactor":0.5
			}
		}
	],
	"meshes":[
		{
			"name":"18646.002",
			"primitives":[
				{
					"attributes":{
						"POSITION":0,
						"NORMAL":1,
						"TEXCOORD_0":2
					},
					"indices":3,
					"material":0
				}
			]
		}
	],
	"textures":[
		{
			"sampler":0,
			"source":0
		}
	],
	"images":[
		{
			"mimeType":"image/png",
			"name":"Untitled",
			"uri":"Untitled.png"
		}
	],
	"accessors":[
		{
			"bufferView":0,
			"componentType":5126,
			"count":533779,
			"max":[
				138.09341430664062,
				257.32879638671875,
				183.6966552734375
			],
			"min":[
				-295.3502502441406,
				-103.99462127685547,
				-201.01531982421875
			],
			"type":"VEC3"
		},
		{
			"bufferView":1,
			"componentType":5126,
			"count":533779,
			"type":"VEC3"
		},
		{
			"bufferView":2,
			"componentType":5126,
			"count":533779,
			"type":"VEC2"
		},
		{
			"bufferView":3,
			"componentType":5125,
			"count":785397,
			"type":"SCALAR"
		}
	],
	"bufferViews":[
		{
			"buffer":0,
			"byteLength":6405348,
			"byteOffset":0,
			"target":34962
		},
		{
			"buffer":0,
			"byteLength":6405348,
			"byteOffset":6405348,
			"target":34962
		},
		{
			"buffer":0,
			"byteLength":4270232,
			"byteOffset":12810696,
			"target":34962
		},
		{
			"buffer":0,
			"byteLength":3141588,
			"byteOffset":17080928,
			"target":34963
		}
	],
	"samplers":[
		{
			"magFilter":9729,
			"minFilter":9987
		}
	],
	"buffers":[
		{
			"byteLength":20222516,
			"uri":"arkham-asylum.bin"
		}
	]
}
