{
	"asset":{
		"generator":"Khronos glTF Blender I/O v5.1.18",
		"version":"2.0"
	},
	"scene":0,
	"scenes":[
		{
			"name":"Scene",
			"nodes":[
				1
			]
		}
	],
	"nodes":[
		{
			"mesh":0,
			"name":"part",
			"rotation":[
				0.6705669164657593,
				-0.22436584532260895,
				0.22436608374118805,
				0.6705667972564697
			]
		},
		{
			"children":[
				0
			],
			"name":"Empty"
		}
	],
	"materials":[
		{
			"doubleSided":true,
			"name":"bake",
			"pbrMetallicRoughness":{
				"baseColorTexture":{
					"index":0
				},
				"metallicFactor":0,
				"roughnessFactor":0.5
			}
		}
	],
	"meshes":[
		{
			"name":"973UV.013",
			"primitives":[
				{
					"attributes":{
						"POSITION":0,
						"NORMAL":1,
						"TEXCOORD_0":2
					},
					"indices":3,
					"material":0
				}
			]
		}
	],
	"textures":[
		{
			"sampler":0,
			"source":0
		}
	],
	"images":[
		{
			"mimeType":"image/png",
			"name":"Untitled",
			"uri":"Untitled.png"
		}
	],
	"accessors":[
		{
			"bufferView":0,
			"componentType":5126,
			"count":595281,
			"max":[
				179.20138549804688,
				258.91363525390625,
				1.3800277709960938
			],
			"min":[
				-179.201416015625,
				-179.20135498046875,
				-379.8087158203125
			],
			"type":"VEC3"
		},
		{
			"bufferView":1,
			"componentType":5126,
			"count":595281,
			"type":"VEC3"
		},
		{
			"bufferView":2,
			"componentType":5126,
			"count":595281,
			"type":"VEC2"
		},
		{
			"bufferView":3,
			"componentType":5125,
			"count":801327,
			"type":"SCALAR"
		}
	],
	"bufferViews":[
		{
			"buffer":0,
			"byteLength":7143372,
			"byteOffset":0,
			"target":34962
		},
		{
			"buffer":0,
			"byteLength":7143372,
			"byteOffset":7143372,
			"target":34962
		},
		{
			"buffer":0,
			"byteLength":4762248,
			"byteOffset":14286744,
			"target":34962
		},
		{
			"buffer":0,
			"byteLength":3205308,
			"byteOffset":19048992,
			"target":34963
		}
	],
	"samplers":[
		{
			"magFilter":9729,
			"minFilter":9987
		}
	],
	"buffers":[
		{
			"byteLength":22254300,
			"uri":"palace-cinema.bin"
		}
	]
}
