{
	"asset":{
		"generator":"Khronos glTF Blender I/O v5.1.18",
		"version":"2.0"
	},
	"scene":0,
	"scenes":[
		{
			"name":"Scene",
			"nodes":[
				1
			]
		}
	],
	"nodes":[
		{
			"mesh":0,
			"name":"part.990",
			"rotation":[
				0.7071068286895752,
				0,
				0,
				0.7071068286895752
			],
			"translation":[
				64,
				137.60000610351562,
				72.00000762939453
			]
		},
		{
			"children":[
				0
			],
			"name":"Empty"
		}
	],
	"materials":[
		{
			"doubleSided":true,
			"name":"bake",
			"pbrMetallicRoughness":{
				"baseColorTexture":{
					"index":0
				},
				"metallicFactor":0,
				"roughnessFactor":0.5
			}
		}
	],
	"meshes":[
		{
			"name":"3795.003",
			"primitives":[
				{
					"attributes":{
						"POSITION":0,
						"NORMAL":1,
						"TEXCOORD_0":2
					},
					"indices":3,
					"material":0
				}
			]
		}
	],
	"textures":[
		{
			"sampler":0,
			"source":0
		}
	],
	"images":[
		{
			"mimeType":"image/png",
			"name":"Untitled",
			"uri":"Untitled.png"
		}
	],
	"accessors":[
		{
			"bufferView":0,
			"componentType":5126,
			"count":655015,
			"max":[
				71.96090698242188,
				61.60410690307617,
				138.98001098632812
			],
			"min":[
				-192.06686401367188,
				-199.87857055664062,
				-188.7800750732422
			],
			"type":"VEC3"
		},
		{
			"bufferView":1,
			"componentType":5126,
			"count":655015,
			"type":"VEC3"
		},
		{
			"bufferView":2,
			"componentType":5126,
			"count":655015,
			"type":"VEC2"
		},
		{
			"bufferView":3,
			"componentType":5125,
			"count":873069,
			"type":"SCALAR"
		}
	],
	"bufferViews":[
		{
			"buffer":0,
			"byteLength":7860180,
			"byteOffset":0,
			"target":34962
		},
		{
			"buffer":0,
			"byteLength":7860180,
			"byteOffset":7860180,
			"target":34962
		},
		{
			"buffer":0,
			"byteLength":5240120,
			"byteOffset":15720360,
			"target":34962
		},
		{
			"buffer":0,
			"byteLength":3492276,
			"byteOffset":20960480,
			"target":34963
		}
	],
	"samplers":[
		{
			"magFilter":9729,
			"minFilter":9987
		}
	],
	"buffers":[
		{
			"byteLength":24452756,
			"uri":"market-street.bin"
		}
	]
}
