{
	"asset":{
		"generator":"Khronos glTF Blender I/O v5.1.18",
		"version":"2.0"
	},
	"scene":0,
	"scenes":[
		{
			"name":"Scene",
			"nodes":[
				1
			]
		}
	],
	"nodes":[
		{
			"mesh":0,
			"name":"part.1591",
			"rotation":[
				0.5,
				-0.5,
				0.5,
				0.5000000596046448
			]
		},
		{
			"children":[
				0
			],
			"name":"Empty"
		}
	],
	"materials":[
		{
			"doubleSided":true,
			"name":"bake",
			"pbrMetallicRoughness":{
				"baseColorTexture":{
					"index":0
				},
				"metallicFactor":0,
				"roughnessFactor":0.5
			}
		}
	],
	"meshes":[
		{
			"name":"3622.003",
			"primitives":[
				{
					"attributes":{
						"POSITION":0,
						"NORMAL":1,
						"TEXCOORD_0":2
					},
					"indices":3,
					"material":0
				}
			]
		}
	],
	"textures":[
		{
			"sampler":0,
			"source":0
		}
	],
	"images":[
		{
			"mimeType":"image/png",
			"name":"Untitled",
			"uri":"Untitled.png"
		}
	],
	"accessors":[
		{
			"bufferView":0,
			"componentType":5126,
			"count":1498620,
			"max":[
				127.91263580322266,
				130.22817993164062,
				-0.0200042724609375
			],
			"min":[
				-127.8563003540039,
				-135.16006469726562,
				-335.99163818359375
			],
			"type":"VEC3"
		},
		{
			"bufferView":1,
			"componentType":5126,
			"count":1498620,
			"type":"VEC3"
		},
		{
			"bufferView":2,
			"componentType":5126,
			"count":1498620,
			"type":"VEC2"
		},
		{
			"bufferView":3,
			"componentType":5125,
			"count":1846164,
			"type":"SCALAR"
		}
	],
	"bufferViews":[
		{
			"buffer":0,
			"byteLength":17983440,
			"byteOffset":0,
			"target":34962
		},
		{
			"buffer":0,
			"byteLength":17983440,
			"byteOffset":17983440,
			"target":34962
		},
		{
			"buffer":0,
			"byteLength":11988960,
			"byteOffset":35966880,
			"target":34962
		},
		{
			"buffer":0,
			"byteLength":7384656,
			"byteOffset":47955840,
			"target":34963
		}
	],
	"samplers":[
		{
			"magFilter":9729,
			"minFilter":9987
		}
	],
	"buffers":[
		{
			"byteLength":55340496,
			"uri":"green-grocer.bin"
		}
	]
}
