{
	"asset":{
		"generator":"Khronos glTF Blender I/O v5.1.18",
		"version":"2.0"
	},
	"scene":0,
	"scenes":[
		{
			"name":"Scene",
			"nodes":[
				1
			]
		}
	],
	"nodes":[
		{
			"mesh":0,
			"name":"part.7535",
			"rotation":[
				0.5,
				-0.5000000596046448,
				0.5000000596046448,
				0.5
			]
		},
		{
			"children":[
				0
			],
			"name":"Empty"
		}
	],
	"materials":[
		{
			"doubleSided":true,
			"name":"bake.001",
			"pbrMetallicRoughness":{
				"baseColorTexture":{
					"index":0
				},
				"metallicFactor":0,
				"roughnessFactor":0.5
			}
		}
	],
	"meshes":[
		{
			"name":"3008.008",
			"primitives":[
				{
					"attributes":{
						"POSITION":0,
						"NORMAL":1,
						"TEXCOORD_0":2
					},
					"indices":3,
					"material":0
				}
			]
		}
	],
	"textures":[
		{
			"sampler":0,
			"source":0
		}
	],
	"images":[
		{
			"mimeType":"image/png",
			"name":"Untitled",
			"uri":"Untitled.png"
		}
	],
	"accessors":[
		{
			"bufferView":0,
			"componentType":5126,
			"count":649197,
			"max":[
				127.96000671386719,
				130.51254272460938,
				-0.019989013671875
			],
			"min":[
				-127.8779067993164,
				-135.16000366210938,
				-336.10040283203125
			],
			"type":"VEC3"
		},
		{
			"bufferView":1,
			"componentType":5126,
			"count":649197,
			"type":"VEC3"
		},
		{
			"bufferView":2,
			"componentType":5126,
			"count":649197,
			"type":"VEC2"
		},
		{
			"bufferView":3,
			"componentType":5125,
			"count":858477,
			"type":"SCALAR"
		}
	],
	"bufferViews":[
		{
			"buffer":0,
			"byteLength":7790364,
			"byteOffset":0,
			"target":34962
		},
		{
			"buffer":0,
			"byteLength":7790364,
			"byteOffset":7790364,
			"target":34962
		},
		{
			"buffer":0,
			"byteLength":5193576,
			"byteOffset":15580728,
			"target":34962
		},
		{
			"buffer":0,
			"byteLength":3433908,
			"byteOffset":20774304,
			"target":34963
		}
	],
	"samplers":[
		{
			"magFilter":9729,
			"minFilter":9987
		}
	],
	"buffers":[
		{
			"byteLength":24208212,
			"uri":"green-grocer.bin"
		}
	]
}
