{
	"asset":{
		"generator":"Khronos glTF Blender I/O v5.1.18",
		"version":"2.0"
	},
	"scene":0,
	"scenes":[
		{
			"name":"Scene",
			"nodes":[
				1
			]
		}
	],
	"nodes":[
		{
			"mesh":0,
			"name":"part",
			"rotation":[
				0,
				-0.7071068286895752,
				0,
				0.7071068286895752
			]
		},
		{
			"children":[
				0
			],
			"name":"Empty"
		}
	],
	"materials":[
		{
			"doubleSided":true,
			"name":"bake",
			"pbrMetallicRoughness":{
				"baseColorTexture":{
					"index":0
				},
				"metallicFactor":0,
				"roughnessFactor":0.5
			}
		}
	],
	"meshes":[
		{
			"name":"18587.001",
			"primitives":[
				{
					"attributes":{
						"POSITION":0,
						"NORMAL":1,
						"TEXCOORD_0":2
					},
					"indices":3,
					"material":0
				}
			]
		}
	],
	"textures":[
		{
			"sampler":0,
			"source":0
		}
	],
	"images":[
		{
			"mimeType":"image/png",
			"name":"Untitled",
			"uri":"Untitled.png"
		}
	],
	"accessors":[
		{
			"bufferView":0,
			"componentType":5126,
			"count":557105,
			"max":[
				131.4578094482422,
				329.3602294921875,
				204.52108764648438
			],
			"min":[
				-135.9651336669922,
				0.01998138427734375,
				-181.30569458007812
			],
			"type":"VEC3"
		},
		{
			"bufferView":1,
			"componentType":5126,
			"count":557105,
			"type":"VEC3"
		},
		{
			"bufferView":2,
			"componentType":5126,
			"count":557105,
			"type":"VEC2"
		},
		{
			"bufferView":3,
			"componentType":5125,
			"count":788313,
			"type":"SCALAR"
		}
	],
	"bufferViews":[
		{
			"buffer":0,
			"byteLength":6685260,
			"byteOffset":0,
			"target":34962
		},
		{
			"buffer":0,
			"byteLength":6685260,
			"byteOffset":6685260,
			"target":34962
		},
		{
			"buffer":0,
			"byteLength":4456840,
			"byteOffset":13370520,
			"target":34962
		},
		{
			"buffer":0,
			"byteLength":3153252,
			"byteOffset":17827360,
			"target":34963
		}
	],
	"samplers":[
		{
			"magFilter":9729,
			"minFilter":9987
		}
	],
	"buffers":[
		{
			"byteLength":20980612,
			"uri":"sanctum-sanctorum.bin"
		}
	]
}
