{
	"asset":{
		"generator":"Khronos glTF Blender I/O v5.1.18",
		"version":"2.0"
	},
	"scene":0,
	"scenes":[
		{
			"name":"Scene",
			"nodes":[
				1
			]
		}
	],
	"nodes":[
		{
			"mesh":0,
			"name":"part",
			"rotation":[
				0,
				0,
				-0.7071066498756409,
				0.70710688829422
			]
		},
		{
			"children":[
				0
			],
			"name":"Empty",
			"rotation":[
				0.7071068286895752,
				0,
				0,
				0.7071068286895752
			]
		}
	],
	"materials":[
		{
			"doubleSided":true,
			"name":"bake",
			"pbrMetallicRoughness":{
				"baseColorTexture":{
					"index":0
				},
				"metallicFactor":0,
				"roughnessFactor":0.5
			}
		}
	],
	"meshes":[
		{
			"name":"23950.002",
			"primitives":[
				{
					"attributes":{
						"POSITION":0,
						"NORMAL":1,
						"TEXCOORD_0":2
					},
					"indices":3,
					"material":0
				}
			]
		}
	],
	"textures":[
		{
			"sampler":0,
			"source":0
		}
	],
	"images":[
		{
			"mimeType":"image/png",
			"name":"Untitled",
			"uri":"Untitled.png"
		}
	],
	"accessors":[
		{
			"bufferView":0,
			"componentType":5126,
			"count":523470,
			"max":[
				128.1728515625,
				166.7483367919922,
				0.9432373046875
			],
			"min":[
				-302.5415344238281,
				-143.9600067138672,
				-820.8623046875
			],
			"type":"VEC3"
		},
		{
			"bufferView":1,
			"componentType":5126,
			"count":523470,
			"type":"VEC3"
		},
		{
			"bufferView":2,
			"componentType":5126,
			"count":523470,
			"type":"VEC2"
		},
		{
			"bufferView":3,
			"componentType":5125,
			"count":764484,
			"type":"SCALAR"
		}
	],
	"bufferViews":[
		{
			"buffer":0,
			"byteLength":6281640,
			"byteOffset":0,
			"target":34962
		},
		{
			"buffer":0,
			"byteLength":6281640,
			"byteOffset":6281640,
			"target":34962
		},
		{
			"buffer":0,
			"byteLength":4187760,
			"byteOffset":12563280,
			"target":34962
		},
		{
			"buffer":0,
			"byteLength":3057936,
			"byteOffset":16751040,
			"target":34963
		}
	],
	"samplers":[
		{
			"magFilter":9729,
			"minFilter":9987
		}
	],
	"buffers":[
		{
			"byteLength":19808976,
			"uri":"daily-bugle.bin"
		}
	]
}
