{
	"asset":{
		"generator":"Khronos glTF Blender I/O v5.1.18",
		"version":"2.0"
	},
	"scene":0,
	"scenes":[
		{
			"name":"Scene",
			"nodes":[
				1
			]
		}
	],
	"nodes":[
		{
			"mesh":0,
			"name":"part",
			"rotation":[
				0,
				-0.7071068286895752,
				0,
				0.7071068286895752
			],
			"translation":[
				2.764232635498047,
				101.6280517578125,
				-7.420833587646484
			]
		},
		{
			"children":[
				0
			],
			"name":"Empty"
		}
	],
	"materials":[
		{
			"doubleSided":true,
			"name":"bake",
			"pbrMetallicRoughness":{
				"baseColorTexture":{
					"index":0
				},
				"metallicFactor":0,
				"roughnessFactor":0.5
			}
		}
	],
	"meshes":[
		{
			"name":"15573.002",
			"primitives":[
				{
					"attributes":{
						"POSITION":0,
						"NORMAL":1,
						"TEXCOORD_0":2
					},
					"indices":3,
					"material":0
				}
			]
		}
	],
	"textures":[
		{
			"sampler":0,
			"source":0
		}
	],
	"images":[
		{
			"mimeType":"image/png",
			"name":"Untitled",
			"uri":"Untitled.png"
		}
	],
	"accessors":[
		{
			"bufferView":0,
			"componentType":5126,
			"count":592818,
			"max":[
				143.151123046875,
				197.45147705078125,
				138.16763305664062
			],
			"min":[
				-157.22068786621094,
				-101.60806274414062,
				-141.57916259765625
			],
			"type":"VEC3"
		},
		{
			"bufferView":1,
			"componentType":5126,
			"count":592818,
			"type":"VEC3"
		},
		{
			"bufferView":2,
			"componentType":5126,
			"count":592818,
			"type":"VEC2"
		},
		{
			"bufferView":3,
			"componentType":5125,
			"count":808701,
			"type":"SCALAR"
		}
	],
	"bufferViews":[
		{
			"buffer":0,
			"byteLength":7113816,
			"byteOffset":0,
			"target":34962
		},
		{
			"buffer":0,
			"byteLength":7113816,
			"byteOffset":7113816,
			"target":34962
		},
		{
			"buffer":0,
			"byteLength":4742544,
			"byteOffset":14227632,
			"target":34962
		},
		{
			"buffer":0,
			"byteLength":3234804,
			"byteOffset":18970176,
			"target":34963
		}
	],
	"samplers":[
		{
			"magFilter":9729,
			"minFilter":9987
		}
	],
	"buffers":[
		{
			"byteLength":22204980,
			"uri":"lego-store.bin"
		}
	]
}
