{
	"asset":{
		"generator":"Khronos glTF Blender I/O v5.1.18",
		"version":"2.0"
	},
	"scene":0,
	"scenes":[
		{
			"name":"Scene",
			"nodes":[
				1
			]
		}
	],
	"nodes":[
		{
			"mesh":0,
			"name":"part"
		},
		{
			"children":[
				0
			],
			"name":"Empty"
		}
	],
	"materials":[
		{
			"alphaMode":"BLEND",
			"doubleSided":true,
			"name":"bake",
			"pbrMetallicRoughness":{
				"baseColorTexture":{
					"index":0
				},
				"metallicFactor":0,
				"roughnessFactor":0.5
			}
		}
	],
	"meshes":[
		{
			"name":"61184.002",
			"primitives":[
				{
					"attributes":{
						"POSITION":0,
						"NORMAL":1,
						"TEXCOORD_0":2
					},
					"indices":3,
					"material":0
				}
			]
		}
	],
	"textures":[
		{
			"sampler":0,
			"source":0
		}
	],
	"images":[
		{
			"mimeType":"image/png",
			"name":"Untitled",
			"uri":"Untitled.png"
		}
	],
	"accessors":[
		{
			"bufferView":0,
			"componentType":5126,
			"count":534001,
			"max":[
				147.94676208496094,
				622.7059936523438,
				238.84170532226562
			],
			"min":[
				-187.36032104492188,
				-1.7413482666015625,
				-135.18051147460938
			],
			"type":"VEC3"
		},
		{
			"bufferView":1,
			"componentType":5126,
			"count":534001,
			"type":"VEC3"
		},
		{
			"bufferView":2,
			"componentType":5126,
			"count":534001,
			"type":"VEC2"
		},
		{
			"bufferView":3,
			"componentType":5125,
			"count":734499,
			"type":"SCALAR"
		}
	],
	"bufferViews":[
		{
			"buffer":0,
			"byteLength":6408012,
			"byteOffset":0,
			"target":34962
		},
		{
			"buffer":0,
			"byteLength":6408012,
			"byteOffset":6408012,
			"target":34962
		},
		{
			"buffer":0,
			"byteLength":4272008,
			"byteOffset":12816024,
			"target":34962
		},
		{
			"buffer":0,
			"byteLength":2937996,
			"byteOffset":17088032,
			"target":34963
		}
	],
	"samplers":[
		{
			"magFilter":9729,
			"minFilter":9987
		}
	],
	"buffers":[
		{
			"byteLength":20026028,
			"uri":"ninjago-city.bin"
		}
	]
}
