{
	"asset":{
		"generator":"Khronos glTF Blender I/O v5.1.18",
		"version":"2.0"
	},
	"scene":0,
	"scenes":[
		{
			"name":"Scene",
			"nodes":[
				0,
				1,
				3
			]
		}
	],
	"nodes":[
		{
			"name":"Empty.001"
		},
		{
			"name":"Empty.002"
		},
		{
			"mesh":0,
			"name":"part.1345",
			"translation":[
				-8.1513032913208,
				0,
				-26.598983764648438
			]
		},
		{
			"children":[
				2
			],
			"name":"Empty"
		}
	],
	"materials":[
		{
			"doubleSided":true,
			"name":"bake",
			"pbrMetallicRoughness":{
				"baseColorTexture":{
					"index":0
				},
				"metallicFactor":0,
				"roughnessFactor":0.5
			}
		}
	],
	"meshes":[
		{
			"name":"32607.002",
			"primitives":[
				{
					"attributes":{
						"POSITION":0,
						"NORMAL":1,
						"TEXCOORD_0":2
					},
					"indices":3,
					"material":0
				}
			]
		}
	],
	"textures":[
		{
			"sampler":0,
			"source":0
		}
	],
	"images":[
		{
			"mimeType":"image/png",
			"name":"Untitled",
			"uri":"Untitled.png"
		}
	],
	"accessors":[
		{
			"bufferView":0,
			"componentType":5126,
			"count":560466,
			"max":[
				136.3980712890625,
				195.4169921875,
				154.37867736816406
			],
			"min":[
				-119.9197998046875,
				-124.864990234375,
				-109.61991119384766
			],
			"type":"VEC3"
		},
		{
			"bufferView":1,
			"componentType":5126,
			"count":560466,
			"type":"VEC3"
		},
		{
			"bufferView":2,
			"componentType":5126,
			"count":560466,
			"type":"VEC2"
		},
		{
			"bufferView":3,
			"componentType":5125,
			"count":760758,
			"type":"SCALAR"
		}
	],
	"bufferViews":[
		{
			"buffer":0,
			"byteLength":6725592,
			"byteOffset":0,
			"target":34962
		},
		{
			"buffer":0,
			"byteLength":6725592,
			"byteOffset":6725592,
			"target":34962
		},
		{
			"buffer":0,
			"byteLength":4483728,
			"byteOffset":13451184,
			"target":34962
		},
		{
			"buffer":0,
			"byteLength":3043032,
			"byteOffset":17934912,
			"target":34963
		}
	],
	"samplers":[
		{
			"magFilter":9729,
			"minFilter":9987
		}
	],
	"buffers":[
		{
			"byteLength":20977944,
			"uri":"tudor-corner.bin"
		}
	]
}
