{
	"asset":{
		"generator":"Khronos glTF Blender I/O v5.1.18",
		"version":"2.0"
	},
	"scene":0,
	"scenes":[
		{
			"name":"Scene",
			"nodes":[
				1
			]
		}
	],
	"nodes":[
		{
			"mesh":0,
			"name":"part.692",
			"rotation":[
				0.70710688829422,
				0,
				0,
				0.7071066498756409
			],
			"translation":[
				-20.386838912963867,
				0,
				0
			]
		},
		{
			"children":[
				0
			],
			"name":"Empty"
		}
	],
	"materials":[
		{
			"doubleSided":true,
			"name":"bake.002",
			"pbrMetallicRoughness":{
				"baseColorTexture":{
					"index":0
				},
				"metallicFactor":0,
				"roughnessFactor":0.5
			}
		}
	],
	"meshes":[
		{
			"name":"3622.002",
			"primitives":[
				{
					"attributes":{
						"POSITION":0,
						"NORMAL":1,
						"TEXCOORD_0":2
					},
					"indices":3,
					"material":0
				}
			]
		}
	],
	"textures":[
		{
			"sampler":0,
			"source":0
		}
	],
	"images":[
		{
			"mimeType":"image/png",
			"name":"Untitled",
			"uri":"Untitled.png"
		}
	],
	"accessors":[
		{
			"bufferView":0,
			"componentType":5126,
			"count":576657,
			"max":[
				155.9600067138672,
				280.718017578125,
				0.5148552656173706
			],
			"min":[
				-114.07231140136719,
				-127.96001434326172,
				-390.3807373046875
			],
			"type":"VEC3"
		},
		{
			"bufferView":1,
			"componentType":5126,
			"count":576657,
			"type":"VEC3"
		},
		{
			"bufferView":2,
			"componentType":5126,
			"count":576657,
			"type":"VEC2"
		},
		{
			"bufferView":3,
			"componentType":5125,
			"count":730524,
			"type":"SCALAR"
		}
	],
	"bufferViews":[
		{
			"buffer":0,
			"byteLength":6919884,
			"byteOffset":0,
			"target":34962
		},
		{
			"buffer":0,
			"byteLength":6919884,
			"byteOffset":6919884,
			"target":34962
		},
		{
			"buffer":0,
			"byteLength":4613256,
			"byteOffset":13839768,
			"target":34962
		},
		{
			"buffer":0,
			"byteLength":2922096,
			"byteOffset":18453024,
			"target":34963
		}
	],
	"samplers":[
		{
			"magFilter":9729,
			"minFilter":9987
		}
	],
	"buffers":[
		{
			"byteLength":21375120,
			"uri":"fire-brigade.bin"
		}
	]
}
