{
	"asset":{
		"generator":"Khronos glTF Blender I/O v5.1.18",
		"version":"2.0"
	},
	"scene":0,
	"scenes":[
		{
			"name":"Scene",
			"nodes":[
				1
			]
		}
	],
	"nodes":[
		{
			"mesh":0,
			"name":"part"
		},
		{
			"children":[
				0
			],
			"name":"Empty"
		}
	],
	"materials":[
		{
			"doubleSided":true,
			"name":"bake",
			"pbrMetallicRoughness":{
				"baseColorTexture":{
					"index":0
				},
				"metallicFactor":0,
				"roughnessFactor":0.5
			}
		}
	],
	"meshes":[
		{
			"name":"44336uv.001",
			"primitives":[
				{
					"attributes":{
						"POSITION":0,
						"NORMAL":1,
						"TEXCOORD_0":2
					},
					"indices":3,
					"material":0
				}
			]
		}
	],
	"textures":[
		{
			"sampler":0,
			"source":0
		}
	],
	"images":[
		{
			"mimeType":"image/png",
			"name":"Untitled",
			"uri":"Untitled.png"
		}
	],
	"accessors":[
		{
			"bufferView":0,
			"componentType":5126,
			"count":27273,
			"max":[
				127.95999908447266,
				1.8000094890594482,
				127.95999908447266
			],
			"min":[
				-127.95999908447266,
				-1.380009651184082,
				-127.95999908447266
			],
			"type":"VEC3"
		},
		{
			"bufferView":1,
			"componentType":5126,
			"count":27273,
			"type":"VEC3"
		},
		{
			"bufferView":2,
			"componentType":5126,
			"count":27273,
			"type":"VEC2"
		},
		{
			"bufferView":3,
			"componentType":5123,
			"count":55572,
			"type":"SCALAR"
		}
	],
	"bufferViews":[
		{
			"buffer":0,
			"byteLength":327276,
			"byteOffset":0,
			"target":34962
		},
		{
			"buffer":0,
			"byteLength":327276,
			"byteOffset":327276,
			"target":34962
		},
		{
			"buffer":0,
			"byteLength":218184,
			"byteOffset":654552,
			"target":34962
		},
		{
			"buffer":0,
			"byteLength":111144,
			"byteOffset":872736,
			"target":34963
		}
	],
	"samplers":[
		{
			"magFilter":9729,
			"minFilter":9987
		}
	],
	"buffers":[
		{
			"byteLength":983880,
			"uri":"straight-road.bin"
		}
	]
}
