{
	"asset":{
		"generator":"Khronos glTF Blender I/O v5.1.18",
		"version":"2.0"
	},
	"scene":0,
	"scenes":[
		{
			"name":"Scene",
			"nodes":[
				1
			]
		}
	],
	"nodes":[
		{
			"mesh":0,
			"name":"part.024",
			"rotation":[
				0,
				0.7071068286895752,
				0,
				0.7071068286895752
			],
			"translation":[
				118.5,
				0,
				4
			]
		},
		{
			"children":[
				0
			],
			"name":"Empty"
		}
	],
	"materials":[
		{
			"doubleSided":true,
			"name":"bake",
			"pbrMetallicRoughness":{
				"baseColorTexture":{
					"index":0
				},
				"metallicFactor":0,
				"roughnessFactor":0.5
			}
		}
	],
	"meshes":[
		{
			"name":"11090.001",
			"primitives":[
				{
					"attributes":{
						"POSITION":0,
						"NORMAL":1,
						"TEXCOORD_0":2
					},
					"indices":3,
					"material":0
				}
			]
		}
	],
	"textures":[
		{
			"sampler":0,
			"source":0
		}
	],
	"images":[
		{
			"mimeType":"image/png",
			"name":"Untitled",
			"uri":"Untitled.png"
		}
	],
	"accessors":[
		{
			"bufferView":0,
			"componentType":5126,
			"count":520378,
			"max":[
				139.08477783203125,
				538.75927734375,
				190.51666259765625
			],
			"min":[
				-200.82449340820312,
				-194.58767700195312,
				-253.59933471679688
			],
			"type":"VEC3"
		},
		{
			"bufferView":1,
			"componentType":5126,
			"count":520378,
			"type":"VEC3"
		},
		{
			"bufferView":2,
			"componentType":5126,
			"count":520378,
			"type":"VEC2"
		},
		{
			"bufferView":3,
			"componentType":5125,
			"count":733866,
			"type":"SCALAR"
		}
	],
	"bufferViews":[
		{
			"buffer":0,
			"byteLength":6244536,
			"byteOffset":0,
			"target":34962
		},
		{
			"buffer":0,
			"byteLength":6244536,
			"byteOffset":6244536,
			"target":34962
		},
		{
			"buffer":0,
			"byteLength":4163024,
			"byteOffset":12489072,
			"target":34962
		},
		{
			"buffer":0,
			"byteLength":2935464,
			"byteOffset":16652096,
			"target":34963
		}
	],
	"samplers":[
		{
			"magFilter":9729,
			"minFilter":9987
		}
	],
	"buffers":[
		{
			"byteLength":19587560,
			"uri":"ninjago-city-gardens.bin"
		}
	]
}
