{
	"asset":{
		"generator":"Khronos glTF Blender I/O v5.1.18",
		"version":"2.0"
	},
	"scene":0,
	"scenes":[
		{
			"name":"Scene",
			"nodes":[
				1
			]
		}
	],
	"nodes":[
		{
			"mesh":0,
			"name":"part",
			"rotation":[
				0.5000025629997253,
				0.49999743700027466,
				-0.49999743700027466,
				0.5000025629997253
			],
			"translation":[
				-68.4000015258789,
				19.200002670288086,
				-56
			]
		},
		{
			"children":[
				0
			],
			"name":"Empty"
		}
	],
	"materials":[
		{
			"doubleSided":true,
			"name":"bake",
			"pbrMetallicRoughness":{
				"baseColorTexture":{
					"index":0
				},
				"metallicFactor":0,
				"roughnessFactor":0.5
			}
		}
	],
	"meshes":[
		{
			"name":"3815.001",
			"primitives":[
				{
					"attributes":{
						"POSITION":0,
						"NORMAL":1,
						"TEXCOORD_0":2
					},
					"indices":3,
					"material":0
				}
			]
		}
	],
	"textures":[
		{
			"sampler":0,
			"source":0
		}
	],
	"images":[
		{
			"mimeType":"image/png",
			"name":"Untitled",
			"uri":"Untitled.png"
		}
	],
	"accessors":[
		{
			"bufferView":0,
			"componentType":5126,
			"count":591742,
			"max":[
				71.92344665527344,
				204.36111450195312,
				20.580013275146484
			],
			"min":[
				-187.6709442138672,
				-59.58112716674805,
				-256.5768737792969
			],
			"type":"VEC3"
		},
		{
			"bufferView":1,
			"componentType":5126,
			"count":591742,
			"type":"VEC3"
		},
		{
			"bufferView":2,
			"componentType":5126,
			"count":591742,
			"type":"VEC2"
		},
		{
			"bufferView":3,
			"componentType":5125,
			"count":807390,
			"type":"SCALAR"
		}
	],
	"bufferViews":[
		{
			"buffer":0,
			"byteLength":7100904,
			"byteOffset":0,
			"target":34962
		},
		{
			"buffer":0,
			"byteLength":7100904,
			"byteOffset":7100904,
			"target":34962
		},
		{
			"buffer":0,
			"byteLength":4733936,
			"byteOffset":14201808,
			"target":34962
		},
		{
			"buffer":0,
			"byteLength":3229560,
			"byteOffset":18935744,
			"target":34963
		}
	],
	"samplers":[
		{
			"magFilter":9729,
			"minFilter":9987
		}
	],
	"buffers":[
		{
			"byteLength":22165304,
			"uri":"detective-office.bin"
		}
	]
}
