{
	"asset":{
		"generator":"Khronos glTF Blender I/O v5.1.18",
		"version":"2.0"
	},
	"scene":0,
	"scenes":[
		{
			"name":"Scene",
			"nodes":[
				1
			]
		}
	],
	"nodes":[
		{
			"mesh":0,
			"name":"part",
			"rotation":[
				0,
				-0.7071068286895752,
				0,
				0.7071068286895752
			],
			"translation":[
				55,
				0,
				-12.5
			]
		},
		{
			"children":[
				0
			],
			"name":"Empty"
		}
	],
	"materials":[
		{
			"doubleSided":true,
			"name":"bake",
			"pbrMetallicRoughness":{
				"baseColorTexture":{
					"index":0
				},
				"metallicFactor":0,
				"roughnessFactor":0.5
			}
		}
	],
	"meshes":[
		{
			"name":"11211.002",
			"primitives":[
				{
					"attributes":{
						"POSITION":0,
						"NORMAL":1,
						"TEXCOORD_0":2
					},
					"indices":3,
					"material":0
				}
			]
		}
	],
	"textures":[
		{
			"sampler":0,
			"source":0
		}
	],
	"images":[
		{
			"mimeType":"image/png",
			"name":"Untitled",
			"uri":"Untitled.png"
		}
	],
	"accessors":[
		{
			"bufferView":0,
			"componentType":5126,
			"count":529032,
			"max":[
				251.0156707763672,
				243.51605224609375,
				235.0896759033203
			],
			"min":[
				-115.79109954833984,
				-85.97803497314453,
				-224.8695526123047
			],
			"type":"VEC3"
		},
		{
			"bufferView":1,
			"componentType":5126,
			"count":529032,
			"type":"VEC3"
		},
		{
			"bufferView":2,
			"componentType":5126,
			"count":529032,
			"type":"VEC2"
		},
		{
			"bufferView":3,
			"componentType":5125,
			"count":785424,
			"type":"SCALAR"
		}
	],
	"bufferViews":[
		{
			"buffer":0,
			"byteLength":6348384,
			"byteOffset":0,
			"target":34962
		},
		{
			"buffer":0,
			"byteLength":6348384,
			"byteOffset":6348384,
			"target":34962
		},
		{
			"buffer":0,
			"byteLength":4232256,
			"byteOffset":12696768,
			"target":34962
		},
		{
			"buffer":0,
			"byteLength":3141696,
			"byteOffset":16929024,
			"target":34963
		}
	],
	"samplers":[
		{
			"magFilter":9729,
			"minFilter":9987
		}
	],
	"buffers":[
		{
			"byteLength":20070720,
			"uri":"x-mansion.bin"
		}
	]
}
