{
	"asset":{
		"generator":"Khronos glTF Blender I/O v5.1.18",
		"version":"2.0"
	},
	"scene":0,
	"scenes":[
		{
			"name":"Scene",
			"nodes":[
				1
			]
		}
	],
	"nodes":[
		{
			"mesh":0,
			"name":"part"
		},
		{
			"children":[
				0
			],
			"name":"Empty"
		}
	],
	"materials":[
		{
			"doubleSided":true,
			"name":"bake",
			"pbrMetallicRoughness":{
				"baseColorTexture":{
					"index":0
				},
				"metallicFactor":0,
				"roughnessFactor":0.5
			}
		}
	],
	"meshes":[
		{
			"name":"3069UV.001",
			"primitives":[
				{
					"attributes":{
						"POSITION":0,
						"NORMAL":1,
						"TEXCOORD_0":2
					},
					"indices":3,
					"material":0
				}
			]
		}
	],
	"textures":[
		{
			"sampler":0,
			"source":0
		}
	],
	"images":[
		{
			"mimeType":"image/png",
			"name":"Untitled",
			"uri":"Untitled.png"
		}
	],
	"accessors":[
		{
			"bufferView":0,
			"componentType":5126,
			"count":582423,
			"max":[
				135.93797302246094,
				260.57952880859375,
				127.96925354003906
			],
			"min":[
				-131.4304656982422,
				0.019727706909179688,
				-127.9556884765625
			],
			"type":"VEC3"
		},
		{
			"bufferView":1,
			"componentType":5126,
			"count":582423,
			"type":"VEC3"
		},
		{
			"bufferView":2,
			"componentType":5126,
			"count":582423,
			"type":"VEC2"
		},
		{
			"bufferView":3,
			"componentType":5125,
			"count":801147,
			"type":"SCALAR"
		}
	],
	"bufferViews":[
		{
			"buffer":0,
			"byteLength":6989076,
			"byteOffset":0,
			"target":34962
		},
		{
			"buffer":0,
			"byteLength":6989076,
			"byteOffset":6989076,
			"target":34962
		},
		{
			"buffer":0,
			"byteLength":4659384,
			"byteOffset":13978152,
			"target":34962
		},
		{
			"buffer":0,
			"byteLength":3204588,
			"byteOffset":18637536,
			"target":34963
		}
	],
	"samplers":[
		{
			"magFilter":9729,
			"minFilter":9987
		}
	],
	"buffers":[
		{
			"byteLength":21842124,
			"uri":"brick-bank.bin"
		}
	]
}
