{
	"asset":{
		"generator":"Khronos glTF Blender I/O v5.1.18",
		"version":"2.0"
	},
	"scene":0,
	"scenes":[
		{
			"name":"Scene",
			"nodes":[
				1
			]
		}
	],
	"nodes":[
		{
			"mesh":0,
			"name":"part"
		},
		{
			"children":[
				0
			],
			"name":"Empty",
			"rotation":[
				0,
				0.7071068286895752,
				0,
				0.7071068286895752
			]
		}
	],
	"materials":[
		{
			"doubleSided":true,
			"name":"bake",
			"pbrMetallicRoughness":{
				"baseColorTexture":{
					"index":0
				},
				"metallicFactor":0,
				"roughnessFactor":0.5
			}
		}
	],
	"meshes":[
		{
			"name":"44336uv.001",
			"primitives":[
				{
					"attributes":{
						"POSITION":0,
						"NORMAL":1,
						"TEXCOORD_0":2
					},
					"indices":3,
					"material":0
				}
			]
		}
	],
	"textures":[
		{
			"sampler":0,
			"source":0
		}
	],
	"images":[
		{
			"mimeType":"image/png",
			"name":"Untitled",
			"uri":"Untitled.png"
		}
	],
	"accessors":[
		{
			"bufferView":0,
			"componentType":5126,
			"count":77665,
			"max":[
				127.95999908447266,
				3.180006504058838,
				127.95999908447266
			],
			"min":[
				-127.95999908447266,
				-1.380009651184082,
				-127.95999908447266
			],
			"type":"VEC3"
		},
		{
			"bufferView":1,
			"componentType":5126,
			"count":77665,
			"type":"VEC3"
		},
		{
			"bufferView":2,
			"componentType":5126,
			"count":77665,
			"type":"VEC2"
		},
		{
			"bufferView":3,
			"componentType":5125,
			"count":192276,
			"type":"SCALAR"
		}
	],
	"bufferViews":[
		{
			"buffer":0,
			"byteLength":931980,
			"byteOffset":0,
			"target":34962
		},
		{
			"buffer":0,
			"byteLength":931980,
			"byteOffset":931980,
			"target":34962
		},
		{
			"buffer":0,
			"byteLength":621320,
			"byteOffset":1863960,
			"target":34962
		},
		{
			"buffer":0,
			"byteLength":769104,
			"byteOffset":2485280,
			"target":34963
		}
	],
	"samplers":[
		{
			"magFilter":9729,
			"minFilter":9987
		}
	],
	"buffers":[
		{
			"byteLength":3254384,
			"uri":"straight-road.bin"
		}
	]
}
