{
	"asset":{
		"generator":"Khronos glTF Blender I/O v5.1.18",
		"version":"2.0"
	},
	"scene":0,
	"scenes":[
		{
			"name":"Scene",
			"nodes":[
				1
			]
		}
	],
	"nodes":[
		{
			"mesh":0,
			"name":"part",
			"translation":[
				112.08125305175781,
				0,
				39.84115219116211
			]
		},
		{
			"children":[
				0
			],
			"name":"Empty"
		}
	],
	"materials":[
		{
			"doubleSided":true,
			"name":"bake",
			"pbrMetallicRoughness":{
				"baseColorTexture":{
					"index":0
				},
				"metallicFactor":0,
				"roughnessFactor":0.5
			}
		}
	],
	"meshes":[
		{
			"name":"11090.001",
			"primitives":[
				{
					"attributes":{
						"POSITION":0,
						"NORMAL":1,
						"TEXCOORD_0":2
					},
					"indices":3,
					"material":0
				}
			]
		}
	],
	"textures":[
		{
			"sampler":0,
			"source":0
		}
	],
	"images":[
		{
			"mimeType":"image/png",
			"name":"Untitled",
			"uri":"Untitled.png"
		}
	],
	"accessors":[
		{
			"bufferView":0,
			"componentType":5126,
			"count":565569,
			"max":[
				271.96002197265625,
				317.281005859375,
				127.73866271972656
			],
			"min":[
				-243.57640075683594,
				0.019990921020507812,
				-176.15814208984375
			],
			"type":"VEC3"
		},
		{
			"bufferView":1,
			"componentType":5126,
			"count":565569,
			"type":"VEC3"
		},
		{
			"bufferView":2,
			"componentType":5126,
			"count":565569,
			"type":"VEC2"
		},
		{
			"bufferView":3,
			"componentType":5125,
			"count":789099,
			"type":"SCALAR"
		}
	],
	"bufferViews":[
		{
			"buffer":0,
			"byteLength":6786828,
			"byteOffset":0,
			"target":34962
		},
		{
			"buffer":0,
			"byteLength":6786828,
			"byteOffset":6786828,
			"target":34962
		},
		{
			"buffer":0,
			"byteLength":4524552,
			"byteOffset":13573656,
			"target":34962
		},
		{
			"buffer":0,
			"byteLength":3156396,
			"byteOffset":18098208,
			"target":34963
		}
	],
	"samplers":[
		{
			"magFilter":9729,
			"minFilter":9987
		}
	],
	"buffers":[
		{
			"byteLength":21254604,
			"uri":"retro-bowling-alley.bin"
		}
	]
}
