{
	"asset":{
		"generator":"Khronos glTF Blender I/O v5.1.18",
		"version":"2.0"
	},
	"scene":0,
	"scenes":[
		{
			"name":"Scene",
			"nodes":[
				1
			]
		}
	],
	"nodes":[
		{
			"mesh":0,
			"name":"part",
			"rotation":[
				0.5,
				-0.5000000596046448,
				0.5,
				0.5
			],
			"translation":[
				128,
				0,
				0
			]
		},
		{
			"children":[
				0
			],
			"name":"Empty"
		}
	],
	"materials":[
		{
			"doubleSided":true,
			"name":"bake",
			"pbrMetallicRoughness":{
				"baseColorTexture":{
					"index":0
				},
				"metallicFactor":0,
				"roughnessFactor":0.5
			}
		}
	],
	"meshes":[
		{
			"name":"3460.002",
			"primitives":[
				{
					"attributes":{
						"POSITION":0,
						"NORMAL":1,
						"TEXCOORD_0":2
					},
					"indices":3,
					"material":0
				}
			]
		}
	],
	"textures":[
		{
			"sampler":0,
			"source":0
		}
	],
	"images":[
		{
			"mimeType":"image/png",
			"name":"Untitled",
			"uri":"Untitled.png"
		}
	],
	"accessors":[
		{
			"bufferView":0,
			"componentType":5126,
			"count":505433,
			"max":[
				160.93869018554688,
				260.08905029296875,
				-0.019985198974609375
			],
			"min":[
				-128.1350555419922,
				-135.9600067138672,
				-344.5623779296875
			],
			"type":"VEC3"
		},
		{
			"bufferView":1,
			"componentType":5126,
			"count":505433,
			"type":"VEC3"
		},
		{
			"bufferView":2,
			"componentType":5126,
			"count":505433,
			"type":"VEC2"
		},
		{
			"bufferView":3,
			"componentType":5125,
			"count":770844,
			"type":"SCALAR"
		}
	],
	"bufferViews":[
		{
			"buffer":0,
			"byteLength":6065196,
			"byteOffset":0,
			"target":34962
		},
		{
			"buffer":0,
			"byteLength":6065196,
			"byteOffset":6065196,
			"target":34962
		},
		{
			"buffer":0,
			"byteLength":4043464,
			"byteOffset":12130392,
			"target":34962
		},
		{
			"buffer":0,
			"byteLength":3083376,
			"byteOffset":16173856,
			"target":34963
		}
	],
	"samplers":[
		{
			"magFilter":9729,
			"minFilter":9987
		}
	],
	"buffers":[
		{
			"byteLength":19257232,
			"uri":"assembly-square.bin"
		}
	]
}
