{
	"asset":{
		"generator":"Khronos glTF Blender I/O v5.1.18",
		"version":"2.0"
	},
	"scene":0,
	"scenes":[
		{
			"name":"Scene",
			"nodes":[
				1
			]
		}
	],
	"nodes":[
		{
			"mesh":0,
			"name":"part"
		},
		{
			"children":[
				0
			],
			"name":"Empty"
		}
	],
	"materials":[
		{
			"doubleSided":true,
			"name":"bake",
			"pbrMetallicRoughness":{
				"baseColorTexture":{
					"index":0
				},
				"metallicFactor":0,
				"roughnessFactor":0.5
			}
		}
	],
	"meshes":[
		{
			"name":"3811.002",
			"primitives":[
				{
					"attributes":{
						"POSITION":0,
						"NORMAL":1,
						"TEXCOORD_0":2
					},
					"indices":3,
					"material":0
				}
			]
		}
	],
	"textures":[
		{
			"sampler":0,
			"source":0
		}
	],
	"images":[
		{
			"mimeType":"image/png",
			"name":"Untitled",
			"uri":"Untitled.png"
		}
	],
	"accessors":[
		{
			"bufferView":0,
			"componentType":5126,
			"count":688572,
			"max":[
				127.96001434326172,
				19.208627700805664,
				127.96001434326172
			],
			"min":[
				-127.96001434326172,
				0.0199902206659317,
				-127.96002960205078
			],
			"type":"VEC3"
		},
		{
			"bufferView":1,
			"componentType":5126,
			"count":688572,
			"type":"VEC3"
		},
		{
			"bufferView":2,
			"componentType":5126,
			"count":688572,
			"type":"VEC2"
		},
		{
			"bufferView":3,
			"componentType":5125,
			"count":1001985,
			"type":"SCALAR"
		}
	],
	"bufferViews":[
		{
			"buffer":0,
			"byteLength":8262864,
			"byteOffset":0,
			"target":34962
		},
		{
			"buffer":0,
			"byteLength":8262864,
			"byteOffset":8262864,
			"target":34962
		},
		{
			"buffer":0,
			"byteLength":5508576,
			"byteOffset":16525728,
			"target":34962
		},
		{
			"buffer":0,
			"byteLength":4007940,
			"byteOffset":22034304,
			"target":34963
		}
	],
	"samplers":[
		{
			"magFilter":9729,
			"minFilter":9987
		}
	],
	"buffers":[
		{
			"byteLength":26042244,
			"uri":"road.bin"
		}
	]
}
