{
	"asset":{
		"generator":"Khronos glTF Blender I/O v5.1.18",
		"version":"2.0"
	},
	"scene":0,
	"scenes":[
		{
			"name":"Scene",
			"nodes":[
				1
			]
		}
	],
	"nodes":[
		{
			"mesh":0,
			"name":"part",
			"rotation":[
				0,
				0,
				0.7071068286895752,
				0.7071068286895752
			],
			"translation":[
				-1.4233503341674805,
				-6.863724708557129,
				-354.3057861328125
			]
		},
		{
			"children":[
				0
			],
			"name":"Empty",
			"rotation":[
				0.7071068286895752,
				0,
				0,
				0.7071068286895752
			]
		}
	],
	"materials":[
		{
			"doubleSided":true,
			"name":"bake",
			"pbrMetallicRoughness":{
				"baseColorTexture":{
					"index":0
				},
				"metallicFactor":0,
				"roughnessFactor":0.5
			}
		}
	],
	"meshes":[
		{
			"name":"3626v2.002",
			"primitives":[
				{
					"attributes":{
						"POSITION":0,
						"NORMAL":1,
						"TEXCOORD_0":2
					},
					"indices":3,
					"material":0
				}
			]
		}
	],
	"textures":[
		{
			"sampler":0,
			"source":0
		}
	],
	"images":[
		{
			"mimeType":"image/png",
			"name":"Untitled",
			"uri":"Untitled.png"
		}
	],
	"accessors":[
		{
			"bufferView":0,
			"componentType":5126,
			"count":564327,
			"max":[
				156.03488159179688,
				212.24649047851562,
				355.0440673828125
			],
			"min":[
				-235.04759216308594,
				-239.5041961669922,
				-546.0364379882812
			],
			"type":"VEC3"
		},
		{
			"bufferView":1,
			"componentType":5126,
			"count":564327,
			"type":"VEC3"
		},
		{
			"bufferView":2,
			"componentType":5126,
			"count":564327,
			"type":"VEC2"
		},
		{
			"bufferView":3,
			"componentType":5125,
			"count":793407,
			"type":"SCALAR"
		}
	],
	"bufferViews":[
		{
			"buffer":0,
			"byteLength":6771924,
			"byteOffset":0,
			"target":34962
		},
		{
			"buffer":0,
			"byteLength":6771924,
			"byteOffset":6771924,
			"target":34962
		},
		{
			"buffer":0,
			"byteLength":4514616,
			"byteOffset":13543848,
			"target":34962
		},
		{
			"buffer":0,
			"byteLength":3173628,
			"byteOffset":18058464,
			"target":34963
		}
	],
	"samplers":[
		{
			"magFilter":9729,
			"minFilter":9987
		}
	],
	"buffers":[
		{
			"byteLength":21232092,
			"uri":"avengers-tower.bin"
		}
	]
}
