{
	"asset":{
		"generator":"Khronos glTF Blender I/O v5.1.18",
		"version":"2.0"
	},
	"scene":0,
	"scenes":[
		{
			"name":"Scene",
			"nodes":[
				1
			]
		}
	],
	"nodes":[
		{
			"mesh":0,
			"name":"part.1932",
			"rotation":[
				0.7071068286895752,
				0,
				0,
				0.7071068286895752
			],
			"translation":[
				32,
				107,
				36.000003814697266
			]
		},
		{
			"children":[
				0
			],
			"name":"Empty"
		}
	],
	"materials":[
		{
			"doubleSided":true,
			"name":"bake",
			"pbrMetallicRoughness":{
				"baseColorTexture":{
					"index":0
				},
				"metallicFactor":0,
				"roughnessFactor":0.5
			}
		}
	],
	"meshes":[
		{
			"name":"3023.012",
			"primitives":[
				{
					"attributes":{
						"POSITION":0,
						"NORMAL":1,
						"TEXCOORD_0":2
					},
					"indices":3,
					"material":0
				}
			]
		}
	],
	"textures":[
		{
			"sampler":0,
			"source":0
		}
	],
	"images":[
		{
			"mimeType":"image/png",
			"name":"Untitled",
			"uri":"Untitled.png"
		}
	],
	"accessors":[
		{
			"bufferView":0,
			"componentType":5126,
			"count":1168842,
			"max":[
				103.96000671386719,
				151.1800537109375,
				107.28365325927734
			],
			"min":[
				-203.005615234375,
				-163.96002197265625,
				-182.5254364013672
			],
			"type":"VEC3"
		},
		{
			"bufferView":1,
			"componentType":5126,
			"count":1168842,
			"type":"VEC3"
		},
		{
			"bufferView":2,
			"componentType":5126,
			"count":1168842,
			"type":"VEC2"
		},
		{
			"bufferView":3,
			"componentType":5125,
			"count":1566048,
			"type":"SCALAR"
		}
	],
	"bufferViews":[
		{
			"buffer":0,
			"byteLength":14026104,
			"byteOffset":0,
			"target":34962
		},
		{
			"buffer":0,
			"byteLength":14026104,
			"byteOffset":14026104,
			"target":34962
		},
		{
			"buffer":0,
			"byteLength":9350736,
			"byteOffset":28052208,
			"target":34962
		},
		{
			"buffer":0,
			"byteLength":6264192,
			"byteOffset":37402944,
			"target":34963
		}
	],
	"samplers":[
		{
			"magFilter":9729,
			"minFilter":9987
		}
	],
	"buffers":[
		{
			"byteLength":43667136,
			"uri":"bookshop.bin"
		}
	]
}
