{
	"asset":{
		"generator":"Khronos glTF Blender I/O v5.1.18",
		"version":"2.0"
	},
	"scene":0,
	"scenes":[
		{
			"name":"Scene",
			"nodes":[
				1
			]
		}
	],
	"nodes":[
		{
			"mesh":0,
			"name":"part.8033",
			"rotation":[
				0.7071068286895752,
				0,
				0,
				0.7071068286895752
			],
			"translation":[
				120,
				123.00000762939453,
				68.00000762939453
			]
		},
		{
			"children":[
				0
			],
			"name":"Empty"
		}
	],
	"materials":[
		{
			"doubleSided":true,
			"name":"bake",
			"pbrMetallicRoughness":{
				"baseColorTexture":{
					"index":0
				},
				"metallicFactor":0,
				"roughnessFactor":0.5
			}
		}
	],
	"meshes":[
		{
			"name":"4216.002",
			"primitives":[
				{
					"attributes":{
						"POSITION":0,
						"NORMAL":1,
						"TEXCOORD_0":2
					},
					"indices":3,
					"material":0
				}
			]
		}
	],
	"textures":[
		{
			"sampler":0,
			"source":0
		}
	],
	"images":[
		{
			"mimeType":"image/png",
			"name":"Untitled",
			"uri":"Untitled.png"
		}
	],
	"accessors":[
		{
			"bufferView":0,
			"componentType":5126,
			"count":646150,
			"max":[
				15.960029602050781,
				107.21141052246094,
				122.98009490966797
			],
			"min":[
				-248.51345825195312,
				-195.87857055664062,
				-161.86643981933594
			],
			"type":"VEC3"
		},
		{
			"bufferView":1,
			"componentType":5126,
			"count":646150,
			"type":"VEC3"
		},
		{
			"bufferView":2,
			"componentType":5126,
			"count":646150,
			"type":"VEC2"
		},
		{
			"bufferView":3,
			"componentType":5125,
			"count":866244,
			"type":"SCALAR"
		}
	],
	"bufferViews":[
		{
			"buffer":0,
			"byteLength":7753800,
			"byteOffset":0,
			"target":34962
		},
		{
			"buffer":0,
			"byteLength":7753800,
			"byteOffset":7753800,
			"target":34962
		},
		{
			"buffer":0,
			"byteLength":5169200,
			"byteOffset":15507600,
			"target":34962
		},
		{
			"buffer":0,
			"byteLength":3464976,
			"byteOffset":20676800,
			"target":34963
		}
	],
	"samplers":[
		{
			"magFilter":9729,
			"minFilter":9987
		}
	],
	"buffers":[
		{
			"byteLength":24141776,
			"uri":"pet-shop.bin"
		}
	]
}
