{
	"asset":{
		"generator":"Khronos glTF Blender I/O v5.1.18",
		"version":"2.0"
	},
	"scene":0,
	"scenes":[
		{
			"name":"Scene",
			"nodes":[
				1
			]
		}
	],
	"nodes":[
		{
			"mesh":0,
			"name":"part.650",
			"rotation":[
				0.5000025629997253,
				0.49999743700027466,
				-0.49999743700027466,
				0.5000025629997253
			],
			"translation":[
				124,
				121.59999084472656,
				48.000003814697266
			]
		},
		{
			"children":[
				0
			],
			"name":"Empty"
		}
	],
	"materials":[
		{
			"doubleSided":true,
			"name":"bake",
			"pbrMetallicRoughness":{
				"baseColorTexture":{
					"index":0
				},
				"metallicFactor":0,
				"roughnessFactor":0.5
			}
		}
	],
	"meshes":[
		{
			"name":"3010.004",
			"primitives":[
				{
					"attributes":{
						"POSITION":0,
						"NORMAL":1,
						"TEXCOORD_0":2
					},
					"indices":3,
					"material":0
				}
			]
		}
	],
	"textures":[
		{
			"sampler":0,
			"source":0
		}
	],
	"images":[
		{
			"mimeType":"image/png",
			"name":"Untitled",
			"uri":"Untitled.png"
		}
	],
	"accessors":[
		{
			"bufferView":0,
			"componentType":5126,
			"count":870420,
			"max":[
				175.855712890625,
				11.960091590881348,
				122.9800033569336
			],
			"min":[
				-85.54153442382812,
				-252.0814971923828,
				-204.65362548828125
			],
			"type":"VEC3"
		},
		{
			"bufferView":1,
			"componentType":5126,
			"count":870420,
			"type":"VEC3"
		},
		{
			"bufferView":2,
			"componentType":5126,
			"count":870420,
			"type":"VEC2"
		},
		{
			"bufferView":3,
			"componentType":5125,
			"count":1061778,
			"type":"SCALAR"
		}
	],
	"bufferViews":[
		{
			"buffer":0,
			"byteLength":10445040,
			"byteOffset":0,
			"target":34962
		},
		{
			"buffer":0,
			"byteLength":10445040,
			"byteOffset":10445040,
			"target":34962
		},
		{
			"buffer":0,
			"byteLength":6963360,
			"byteOffset":20890080,
			"target":34962
		},
		{
			"buffer":0,
			"byteLength":4247112,
			"byteOffset":27853440,
			"target":34963
		}
	],
	"samplers":[
		{
			"magFilter":9729,
			"minFilter":9987
		}
	],
	"buffers":[
		{
			"byteLength":32100552,
			"uri":"market-street.bin"
		}
	]
}
