{
	"asset":{
		"generator":"Khronos glTF Blender I/O v5.1.18",
		"version":"2.0"
	},
	"scene":0,
	"scenes":[
		{
			"name":"Scene",
			"nodes":[
				1
			]
		}
	],
	"nodes":[
		{
			"mesh":0,
			"name":"part",
			"translation":[
				45.29999923706055,
				0,
				-16.5
			]
		},
		{
			"children":[
				0
			],
			"name":"Empty"
		}
	],
	"materials":[
		{
			"doubleSided":true,
			"name":"bake",
			"pbrMetallicRoughness":{
				"baseColorTexture":{
					"index":0
				},
				"metallicFactor":0,
				"roughnessFactor":0.5
			}
		}
	],
	"meshes":[
		{
			"name":"18747.001",
			"primitives":[
				{
					"attributes":{
						"POSITION":0,
						"NORMAL":1,
						"TEXCOORD_0":2
					},
					"indices":3,
					"material":0
				}
			]
		}
	],
	"textures":[
		{
			"sampler":0,
			"source":0
		}
	],
	"images":[
		{
			"mimeType":"image/png",
			"name":"Untitled",
			"uri":"Untitled.png"
		}
	],
	"accessors":[
		{
			"bufferView":0,
			"componentType":5126,
			"count":582297,
			"max":[
				249.0327606201172,
				160.56101989746094,
				197.99644470214844
			],
			"min":[
				-181.06614685058594,
				-40.54034423828125,
				-128.6953582763672
			],
			"type":"VEC3"
		},
		{
			"bufferView":1,
			"componentType":5126,
			"count":582297,
			"type":"VEC3"
		},
		{
			"bufferView":2,
			"componentType":5126,
			"count":582297,
			"type":"VEC2"
		},
		{
			"bufferView":3,
			"componentType":5125,
			"count":813669,
			"type":"SCALAR"
		}
	],
	"bufferViews":[
		{
			"buffer":0,
			"byteLength":6987564,
			"byteOffset":0,
			"target":34962
		},
		{
			"buffer":0,
			"byteLength":6987564,
			"byteOffset":6987564,
			"target":34962
		},
		{
			"buffer":0,
			"byteLength":4658376,
			"byteOffset":13975128,
			"target":34962
		},
		{
			"buffer":0,
			"byteLength":3254676,
			"byteOffset":18633504,
			"target":34963
		}
	],
	"samplers":[
		{
			"magFilter":9729,
			"minFilter":9987
		}
	],
	"buffers":[
		{
			"byteLength":21888180,
			"uri":"spring-lantern-festival.bin"
		}
	]
}
