{
	"asset":{
		"generator":"Khronos glTF Blender I/O v5.1.18",
		"version":"2.0"
	},
	"scene":0,
	"scenes":[
		{
			"name":"Scene",
			"nodes":[
				1
			]
		}
	],
	"nodes":[
		{
			"mesh":0,
			"name":"part"
		},
		{
			"children":[
				0
			],
			"name":"Empty"
		}
	],
	"materials":[
		{
			"doubleSided":true,
			"name":"bake",
			"pbrMetallicRoughness":{
				"baseColorTexture":{
					"index":0
				},
				"metallicFactor":0,
				"roughnessFactor":0.5
			}
		}
	],
	"meshes":[
		{
			"name":"11211.002",
			"primitives":[
				{
					"attributes":{
						"POSITION":0,
						"NORMAL":1,
						"TEXCOORD_0":2
					},
					"indices":3,
					"material":0
				}
			]
		}
	],
	"textures":[
		{
			"sampler":0,
			"source":0
		}
	],
	"images":[
		{
			"mimeType":"image/png",
			"name":"Untitled",
			"uri":"Untitled.png"
		}
	],
	"accessors":[
		{
			"bufferView":0,
			"componentType":5126,
			"count":558982,
			"max":[
				135.9743194580078,
				291.1318664550781,
				189.01556396484375
			],
			"min":[
				-171.24569702148438,
				-0.2836151123046875,
				-127.95999908447266
			],
			"type":"VEC3"
		},
		{
			"bufferView":1,
			"componentType":5126,
			"count":558982,
			"type":"VEC3"
		},
		{
			"bufferView":2,
			"componentType":5126,
			"count":558982,
			"type":"VEC2"
		},
		{
			"bufferView":3,
			"componentType":5125,
			"count":789255,
			"type":"SCALAR"
		}
	],
	"bufferViews":[
		{
			"buffer":0,
			"byteLength":6707784,
			"byteOffset":0,
			"target":34962
		},
		{
			"buffer":0,
			"byteLength":6707784,
			"byteOffset":6707784,
			"target":34962
		},
		{
			"buffer":0,
			"byteLength":4471856,
			"byteOffset":13415568,
			"target":34962
		},
		{
			"buffer":0,
			"byteLength":3157020,
			"byteOffset":17887424,
			"target":34963
		}
	],
	"samplers":[
		{
			"magFilter":9729,
			"minFilter":9987
		}
	],
	"buffers":[
		{
			"byteLength":21044444,
			"uri":"bookshop.bin"
		}
	]
}
