{
	"asset":{
		"generator":"Khronos glTF Blender I/O v5.1.18",
		"version":"2.0"
	},
	"scene":0,
	"scenes":[
		{
			"name":"Scene",
			"nodes":[
				1
			]
		}
	],
	"nodes":[
		{
			"mesh":0,
			"name":"part"
		},
		{
			"children":[
				0
			],
			"name":"Empty"
		}
	],
	"materials":[
		{
			"doubleSided":true,
			"name":"bake",
			"pbrMetallicRoughness":{
				"baseColorTexture":{
					"index":0
				},
				"metallicFactor":0,
				"roughnessFactor":0.5
			}
		}
	],
	"meshes":[
		{
			"name":"11055.001",
			"primitives":[
				{
					"attributes":{
						"POSITION":0,
						"NORMAL":1,
						"TEXCOORD_0":2
					},
					"indices":3,
					"material":0
				}
			]
		}
	],
	"textures":[
		{
			"sampler":0,
			"source":0
		}
	],
	"images":[
		{
			"mimeType":"image/png",
			"name":"Untitled",
			"uri":"Untitled.png"
		}
	],
	"accessors":[
		{
			"bufferView":0,
			"componentType":5126,
			"count":599839,
			"max":[
				205.8721923828125,
				319.9998779296875,
				129.80767822265625
			],
			"min":[
				-127.96476745605469,
				-0.66558837890625,
				-135.96002197265625
			],
			"type":"VEC3"
		},
		{
			"bufferView":1,
			"componentType":5126,
			"count":599839,
			"type":"VEC3"
		},
		{
			"bufferView":2,
			"componentType":5126,
			"count":599839,
			"type":"VEC2"
		},
		{
			"bufferView":3,
			"componentType":5125,
			"count":783357,
			"type":"SCALAR"
		}
	],
	"bufferViews":[
		{
			"buffer":0,
			"byteLength":7198068,
			"byteOffset":0,
			"target":34962
		},
		{
			"buffer":0,
			"byteLength":7198068,
			"byteOffset":7198068,
			"target":34962
		},
		{
			"buffer":0,
			"byteLength":4798712,
			"byteOffset":14396136,
			"target":34962
		},
		{
			"buffer":0,
			"byteLength":3133428,
			"byteOffset":19194848,
			"target":34963
		}
	],
	"samplers":[
		{
			"magFilter":9729,
			"minFilter":9987
		}
	],
	"buffers":[
		{
			"byteLength":22328276,
			"uri":"corner-garage.bin"
		}
	]
}
