{
	"asset":{
		"generator":"Khronos glTF Blender I/O v5.1.18",
		"version":"2.0"
	},
	"scene":0,
	"scenes":[
		{
			"name":"Scene",
			"nodes":[
				1
			]
		}
	],
	"nodes":[
		{
			"mesh":0,
			"name":"part"
		},
		{
			"children":[
				0
			],
			"name":"Empty"
		}
	],
	"materials":[
		{
			"doubleSided":true,
			"name":"bake",
			"pbrMetallicRoughness":{
				"baseColorTexture":{
					"index":0
				},
				"metallicFactor":0,
				"roughnessFactor":0.5
			}
		}
	],
	"meshes":[
		{
			"name":"11640.001",
			"primitives":[
				{
					"attributes":{
						"POSITION":0,
						"NORMAL":1,
						"TEXCOORD_0":2
					},
					"indices":3,
					"material":0
				}
			]
		}
	],
	"textures":[
		{
			"sampler":0,
			"source":0
		}
	],
	"images":[
		{
			"mimeType":"image/png",
			"name":"Untitled",
			"uri":"Untitled.png"
		}
	],
	"accessors":[
		{
			"bufferView":0,
			"componentType":5126,
			"count":597836,
			"max":[
				135.99966430664062,
				349.06488037109375,
				267.2437438964844
			],
			"min":[
				-129.10308837890625,
				-0.35275840759277344,
				-127.921875
			],
			"type":"VEC3"
		},
		{
			"bufferView":1,
			"componentType":5126,
			"count":597836,
			"type":"VEC3"
		},
		{
			"bufferView":2,
			"componentType":5126,
			"count":597836,
			"type":"VEC2"
		},
		{
			"bufferView":3,
			"componentType":5125,
			"count":796290,
			"type":"SCALAR"
		}
	],
	"bufferViews":[
		{
			"buffer":0,
			"byteLength":7174032,
			"byteOffset":0,
			"target":34962
		},
		{
			"buffer":0,
			"byteLength":7174032,
			"byteOffset":7174032,
			"target":34962
		},
		{
			"buffer":0,
			"byteLength":4782688,
			"byteOffset":14348064,
			"target":34962
		},
		{
			"buffer":0,
			"byteLength":3185160,
			"byteOffset":19130752,
			"target":34963
		}
	],
	"samplers":[
		{
			"magFilter":9729,
			"minFilter":9987
		}
	],
	"buffers":[
		{
			"byteLength":22315912,
			"uri":"downtown-diner.bin"
		}
	]
}
