{
	"asset":{
		"generator":"Khronos glTF Blender I/O v5.1.18",
		"version":"2.0"
	},
	"scene":0,
	"scenes":[
		{
			"name":"Scene",
			"nodes":[
				1
			]
		}
	],
	"nodes":[
		{
			"mesh":0,
			"name":"part",
			"rotation":[
				0,
				0.7071068286895752,
				-0.7071068286895752,
				6.181724643283815e-08
			],
			"translation":[
				0,
				-1.399999976158142,
				0
			]
		},
		{
			"children":[
				0
			],
			"name":"Empty"
		}
	],
	"materials":[
		{
			"doubleSided":true,
			"name":"bake",
			"pbrMetallicRoughness":{
				"baseColorTexture":{
					"index":0
				},
				"metallicFactor":0,
				"roughnessFactor":0.5
			}
		}
	],
	"meshes":[
		{
			"name":"3811.002",
			"primitives":[
				{
					"attributes":{
						"POSITION":0,
						"NORMAL":1,
						"TEXCOORD_0":2
					},
					"indices":3,
					"material":0
				}
			]
		}
	],
	"textures":[
		{
			"sampler":0,
			"source":0
		}
	],
	"images":[
		{
			"mimeType":"image/png",
			"name":"Untitled",
			"uri":"Untitled.png"
		}
	],
	"accessors":[
		{
			"bufferView":0,
			"componentType":5126,
			"count":554937,
			"max":[
				128.3577880859375,
				127.92146301269531,
				0.340911865234375
			],
			"min":[
				-176.5379180908203,
				-127.96000671386719,
				-496.00018310546875
			],
			"type":"VEC3"
		},
		{
			"bufferView":1,
			"componentType":5126,
			"count":554937,
			"type":"VEC3"
		},
		{
			"bufferView":2,
			"componentType":5126,
			"count":554937,
			"type":"VEC2"
		},
		{
			"bufferView":3,
			"componentType":5125,
			"count":780528,
			"type":"SCALAR"
		}
	],
	"bufferViews":[
		{
			"buffer":0,
			"byteLength":6659244,
			"byteOffset":0,
			"target":34962
		},
		{
			"buffer":0,
			"byteLength":6659244,
			"byteOffset":6659244,
			"target":34962
		},
		{
			"buffer":0,
			"byteLength":4439496,
			"byteOffset":13318488,
			"target":34962
		},
		{
			"buffer":0,
			"byteLength":3122112,
			"byteOffset":17757984,
			"target":34963
		}
	],
	"samplers":[
		{
			"magFilter":9729,
			"minFilter":9987
		}
	],
	"buffers":[
		{
			"byteLength":20880096,
			"uri":"town-hall.bin"
		}
	]
}
