{
	"asset":{
		"generator":"Khronos glTF Blender I/O v5.1.18",
		"version":"2.0"
	},
	"scene":0,
	"scenes":[
		{
			"name":"Scene",
			"nodes":[
				1
			]
		}
	],
	"nodes":[
		{
			"mesh":0,
			"name":"part.3841",
			"rotation":[
				0.6532815098762512,
				0.27059805393218994,
				-0.27059805393218994,
				0.6532815098762512
			],
			"scale":[
				1.000004529953003,
				1.000004529953003,
				1
			],
			"translation":[
				32,
				190.1999969482422,
				32.00000762939453
			]
		},
		{
			"children":[
				0
			],
			"name":"Empty"
		}
	],
	"materials":[
		{
			"doubleSided":true,
			"name":"bake",
			"pbrMetallicRoughness":{
				"baseColorTexture":{
					"index":0
				},
				"metallicFactor":0,
				"roughnessFactor":0.5
			}
		}
	],
	"meshes":[
		{
			"name":"3022.013",
			"primitives":[
				{
					"attributes":{
						"POSITION":0,
						"NORMAL":1,
						"TEXCOORD_0":2
					},
					"indices":3,
					"material":0
				}
			]
		}
	],
	"textures":[
		{
			"sampler":0,
			"source":0
		}
	],
	"images":[
		{
			"mimeType":"image/png",
			"name":"Untitled",
			"uri":"Untitled.png"
		}
	],
	"accessors":[
		{
			"bufferView":0,
			"componentType":5126,
			"count":666489,
			"max":[
				180.9619598388672,
				135.70733642578125,
				190.18002319335938
			],
			"min":[
				-180.96194458007812,
				-225.47586059570312,
				-172.78005981445312
			],
			"type":"VEC3"
		},
		{
			"bufferView":1,
			"componentType":5126,
			"count":666489,
			"type":"VEC3"
		},
		{
			"bufferView":2,
			"componentType":5126,
			"count":666489,
			"type":"VEC2"
		},
		{
			"bufferView":3,
			"componentType":5125,
			"count":896322,
			"type":"SCALAR"
		}
	],
	"bufferViews":[
		{
			"buffer":0,
			"byteLength":7997868,
			"byteOffset":0,
			"target":34962
		},
		{
			"buffer":0,
			"byteLength":7997868,
			"byteOffset":7997868,
			"target":34962
		},
		{
			"buffer":0,
			"byteLength":5331912,
			"byteOffset":15995736,
			"target":34962
		},
		{
			"buffer":0,
			"byteLength":3585288,
			"byteOffset":21327648,
			"target":34963
		}
	],
	"samplers":[
		{
			"magFilter":9729,
			"minFilter":9987
		}
	],
	"buffers":[
		{
			"byteLength":24912936,
			"uri":"cafe-corner.bin"
		}
	]
}
