{
	"asset":{
		"generator":"Khronos glTF Blender I/O v5.1.18",
		"version":"2.0"
	},
	"scene":0,
	"scenes":[
		{
			"name":"Scene",
			"nodes":[
				0,
				1,
				3
			]
		}
	],
	"nodes":[
		{
			"name":"Empty.001"
		},
		{
			"name":"Empty.002"
		},
		{
			"mesh":0,
			"name":"part.1345",
			"translation":[
				-8.1513032913208,
				0,
				-26.598983764648438
			]
		},
		{
			"children":[
				2
			],
			"name":"Empty"
		}
	],
	"materials":[
		{
			"doubleSided":true,
			"name":"bake",
			"pbrMetallicRoughness":{
				"baseColorTexture":{
					"index":0
				},
				"metallicFactor":0,
				"roughnessFactor":0.5
			}
		}
	],
	"meshes":[
		{
			"name":"32607.002",
			"primitives":[
				{
					"attributes":{
						"POSITION":0,
						"NORMAL":1,
						"TEXCOORD_0":2
					},
					"indices":3,
					"material":0
				}
			]
		}
	],
	"textures":[
		{
			"sampler":0,
			"source":0
		}
	],
	"images":[
		{
			"mimeType":"image/png",
			"name":"Untitled",
			"uri":"Untitled.png"
		}
	],
	"accessors":[
		{
			"bufferView":0,
			"componentType":5126,
			"count":1154865,
			"max":[
				136.3980712890625,
				195.01828002929688,
				154.37867736816406
			],
			"min":[
				-120.0634765625,
				-124.86483764648438,
				-109.5414047241211
			],
			"type":"VEC3"
		},
		{
			"bufferView":1,
			"componentType":5126,
			"count":1154865,
			"type":"VEC3"
		},
		{
			"bufferView":2,
			"componentType":5126,
			"count":1154865,
			"type":"VEC2"
		},
		{
			"bufferView":3,
			"componentType":5125,
			"count":1521534,
			"type":"SCALAR"
		}
	],
	"bufferViews":[
		{
			"buffer":0,
			"byteLength":13858380,
			"byteOffset":0,
			"target":34962
		},
		{
			"buffer":0,
			"byteLength":13858380,
			"byteOffset":13858380,
			"target":34962
		},
		{
			"buffer":0,
			"byteLength":9238920,
			"byteOffset":27716760,
			"target":34962
		},
		{
			"buffer":0,
			"byteLength":6086136,
			"byteOffset":36955680,
			"target":34963
		}
	],
	"samplers":[
		{
			"magFilter":9729,
			"minFilter":9987
		}
	],
	"buffers":[
		{
			"byteLength":43041816,
			"uri":"tudor-corner.bin"
		}
	]
}
