{
	"asset":{
		"generator":"Khronos glTF Blender I/O v5.1.18",
		"version":"2.0"
	},
	"scene":0,
	"scenes":[
		{
			"name":"Scene",
			"nodes":[
				1
			]
		}
	],
	"nodes":[
		{
			"mesh":0,
			"name":"part.1241"
		},
		{
			"children":[
				0
			],
			"name":"Empty"
		}
	],
	"materials":[
		{
			"doubleSided":true,
			"name":"bake.003",
			"pbrMetallicRoughness":{
				"baseColorTexture":{
					"index":0
				},
				"metallicFactor":0,
				"roughnessFactor":0.5
			}
		}
	],
	"meshes":[
		{
			"name":"60593.002",
			"primitives":[
				{
					"attributes":{
						"POSITION":0,
						"NORMAL":1,
						"TEXCOORD_0":2
					},
					"indices":3,
					"material":0
				}
			]
		}
	],
	"textures":[
		{
			"sampler":0,
			"source":0
		}
	],
	"images":[
		{
			"mimeType":"image/png",
			"name":"Untitled",
			"uri":"Untitled.png"
		}
	],
	"accessors":[
		{
			"bufferView":0,
			"componentType":5126,
			"count":624571,
			"max":[
				135.26181030273438,
				378.9599914550781,
				164.37466430664062
			],
			"min":[
				-127.96842193603516,
				-0.44716209173202515,
				-135.96011352539062
			],
			"type":"VEC3"
		},
		{
			"bufferView":1,
			"componentType":5126,
			"count":624571,
			"type":"VEC3"
		},
		{
			"bufferView":2,
			"componentType":5126,
			"count":624571,
			"type":"VEC2"
		},
		{
			"bufferView":3,
			"componentType":5125,
			"count":746208,
			"type":"SCALAR"
		}
	],
	"bufferViews":[
		{
			"buffer":0,
			"byteLength":7494852,
			"byteOffset":0,
			"target":34962
		},
		{
			"buffer":0,
			"byteLength":7494852,
			"byteOffset":7494852,
			"target":34962
		},
		{
			"buffer":0,
			"byteLength":4996568,
			"byteOffset":14989704,
			"target":34962
		},
		{
			"buffer":0,
			"byteLength":2984832,
			"byteOffset":19986272,
			"target":34963
		}
	],
	"samplers":[
		{
			"magFilter":9729,
			"minFilter":9987
		}
	],
	"buffers":[
		{
			"byteLength":22971104,
			"uri":"grand-emporium.bin"
		}
	]
}
