{
	"asset":{
		"generator":"Khronos glTF Blender I/O v5.1.18",
		"version":"2.0"
	},
	"scene":0,
	"scenes":[
		{
			"name":"Scene",
			"nodes":[
				1
			]
		}
	],
	"nodes":[
		{
			"mesh":0,
			"name":"part.1241"
		},
		{
			"children":[
				0
			],
			"name":"Empty"
		}
	],
	"materials":[
		{
			"doubleSided":true,
			"name":"bake",
			"pbrMetallicRoughness":{
				"baseColorTexture":{
					"index":0
				},
				"metallicFactor":0,
				"roughnessFactor":0.5
			}
		}
	],
	"meshes":[
		{
			"name":"60593.002",
			"primitives":[
				{
					"attributes":{
						"POSITION":0,
						"NORMAL":1,
						"TEXCOORD_0":2
					},
					"indices":3,
					"material":0
				}
			]
		}
	],
	"textures":[
		{
			"sampler":0,
			"source":0
		}
	],
	"images":[
		{
			"mimeType":"image/png",
			"name":"Untitled",
			"uri":"Untitled.png"
		}
	],
	"accessors":[
		{
			"bufferView":0,
			"componentType":5126,
			"count":1345684,
			"max":[
				135.26181030273438,
				378.9599914550781,
				164.37466430664062
			],
			"min":[
				-127.96026611328125,
				-0.44716209173202515,
				-135.96011352539062
			],
			"type":"VEC3"
		},
		{
			"bufferView":1,
			"componentType":5126,
			"count":1345684,
			"type":"VEC3"
		},
		{
			"bufferView":2,
			"componentType":5126,
			"count":1345684,
			"type":"VEC2"
		},
		{
			"bufferView":3,
			"componentType":5125,
			"count":1658244,
			"type":"SCALAR"
		}
	],
	"bufferViews":[
		{
			"buffer":0,
			"byteLength":16148208,
			"byteOffset":0,
			"target":34962
		},
		{
			"buffer":0,
			"byteLength":16148208,
			"byteOffset":16148208,
			"target":34962
		},
		{
			"buffer":0,
			"byteLength":10765472,
			"byteOffset":32296416,
			"target":34962
		},
		{
			"buffer":0,
			"byteLength":6632976,
			"byteOffset":43061888,
			"target":34963
		}
	],
	"samplers":[
		{
			"magFilter":9729,
			"minFilter":9987
		}
	],
	"buffers":[
		{
			"byteLength":49694864,
			"uri":"grand-emporium.bin"
		}
	]
}
