{
	"asset":{
		"generator":"Khronos glTF Blender I/O v5.1.18",
		"version":"2.0"
	},
	"scene":0,
	"scenes":[
		{
			"name":"Scene",
			"nodes":[
				1
			]
		}
	],
	"nodes":[
		{
			"mesh":0,
			"name":"part",
			"rotation":[
				0.5,
				-0.5,
				0.5,
				0.5
			]
		},
		{
			"children":[
				0
			],
			"name":"Empty"
		}
	],
	"materials":[
		{
			"doubleSided":true,
			"name":"bake",
			"pbrMetallicRoughness":{
				"baseColorTexture":{
					"index":0
				},
				"metallicFactor":0,
				"roughnessFactor":0.5
			}
		}
	],
	"meshes":[
		{
			"name":"11062.002",
			"primitives":[
				{
					"attributes":{
						"POSITION":0,
						"NORMAL":1,
						"TEXCOORD_0":2
					},
					"indices":3,
					"material":0
				}
			]
		}
	],
	"textures":[
		{
			"sampler":0,
			"source":0
		}
	],
	"images":[
		{
			"mimeType":"image/png",
			"name":"Untitled",
			"uri":"Untitled.png"
		}
	],
	"accessors":[
		{
			"bufferView":0,
			"componentType":5126,
			"count":550755,
			"max":[
				132.2562713623047,
				127.96002197265625,
				0.17066431045532227
			],
			"min":[
				-129.5558624267578,
				-135.95999145507812,
				-329.4999694824219
			],
			"type":"VEC3"
		},
		{
			"bufferView":1,
			"componentType":5126,
			"count":550755,
			"type":"VEC3"
		},
		{
			"bufferView":2,
			"componentType":5126,
			"count":550755,
			"type":"VEC2"
		},
		{
			"bufferView":3,
			"componentType":5125,
			"count":789054,
			"type":"SCALAR"
		}
	],
	"bufferViews":[
		{
			"buffer":0,
			"byteLength":6609060,
			"byteOffset":0,
			"target":34962
		},
		{
			"buffer":0,
			"byteLength":6609060,
			"byteOffset":6609060,
			"target":34962
		},
		{
			"buffer":0,
			"byteLength":4406040,
			"byteOffset":13218120,
			"target":34962
		},
		{
			"buffer":0,
			"byteLength":3156216,
			"byteOffset":17624160,
			"target":34963
		}
	],
	"samplers":[
		{
			"magFilter":9729,
			"minFilter":9987
		}
	],
	"buffers":[
		{
			"byteLength":20780376,
			"uri":"boutique-hotel.bin"
		}
	]
}
