{
	"asset":{
		"generator":"Khronos glTF Blender I/O v5.1.18",
		"version":"2.0"
	},
	"scene":0,
	"scenes":[
		{
			"name":"Scene",
			"nodes":[
				1
			]
		}
	],
	"nodes":[
		{
			"mesh":0,
			"name":"part.9029",
			"translation":[
				64,
				0,
				23.5
			]
		},
		{
			"children":[
				0
			],
			"name":"Empty"
		}
	],
	"materials":[
		{
			"doubleSided":true,
			"name":"bake",
			"pbrMetallicRoughness":{
				"baseColorTexture":{
					"index":0
				},
				"metallicFactor":0,
				"roughnessFactor":0.5
			}
		}
	],
	"meshes":[
		{
			"name":"13965.002",
			"primitives":[
				{
					"attributes":{
						"POSITION":0,
						"NORMAL":1,
						"TEXCOORD_0":2
					},
					"indices":3,
					"material":0
				}
			]
		}
	],
	"textures":[
		{
			"sampler":0,
			"source":0
		}
	],
	"images":[
		{
			"mimeType":"image/png",
			"name":"Untitled",
			"uri":"Untitled.png"
		}
	],
	"accessors":[
		{
			"bufferView":0,
			"componentType":5126,
			"count":507522,
			"max":[
				199.92559814453125,
				315.4253234863281,
				249.1001739501953
			],
			"min":[
				-192.0884552001953,
				-0.11302401125431061,
				-151.9214630126953
			],
			"type":"VEC3"
		},
		{
			"bufferView":1,
			"componentType":5126,
			"count":507522,
			"type":"VEC3"
		},
		{
			"bufferView":2,
			"componentType":5126,
			"count":507522,
			"type":"VEC2"
		},
		{
			"bufferView":3,
			"componentType":5125,
			"count":751098,
			"type":"SCALAR"
		}
	],
	"bufferViews":[
		{
			"buffer":0,
			"byteLength":6090264,
			"byteOffset":0,
			"target":34962
		},
		{
			"buffer":0,
			"byteLength":6090264,
			"byteOffset":6090264,
			"target":34962
		},
		{
			"buffer":0,
			"byteLength":4060176,
			"byteOffset":12180528,
			"target":34962
		},
		{
			"buffer":0,
			"byteLength":3004392,
			"byteOffset":16240704,
			"target":34963
		}
	],
	"samplers":[
		{
			"magFilter":9729,
			"minFilter":9987
		}
	],
	"buffers":[
		{
			"byteLength":19245096,
			"uri":"natural-history-museum.bin"
		}
	]
}
