{
	"asset":{
		"generator":"Khronos glTF Blender I/O v5.1.18",
		"version":"2.0"
	},
	"scene":0,
	"scenes":[
		{
			"name":"Scene",
			"nodes":[
				1
			]
		}
	],
	"nodes":[
		{
			"mesh":0,
			"name":"part",
			"translation":[
				57.82093048095703,
				218.70370483398438,
				-24.157045364379883
			]
		},
		{
			"children":[
				0
			],
			"name":"Empty"
		}
	],
	"materials":[
		{
			"doubleSided":true,
			"name":"bake",
			"pbrMetallicRoughness":{
				"baseColorTexture":{
					"index":0
				},
				"metallicFactor":0,
				"roughnessFactor":0.5
			}
		}
	],
	"meshes":[
		{
			"name":"3010.002",
			"primitives":[
				{
					"attributes":{
						"POSITION":0,
						"NORMAL":1,
						"TEXCOORD_0":2
					},
					"indices":3,
					"material":0
				}
			]
		}
	],
	"textures":[
		{
			"sampler":0,
			"source":0
		}
	],
	"images":[
		{
			"mimeType":"image/png",
			"name":"Untitled",
			"uri":"Untitled.png"
		}
	],
	"accessors":[
		{
			"bufferView":0,
			"componentType":5126,
			"count":518764,
			"max":[
				198.7390899658203,
				378.4934997558594,
				174.11587524414062
			],
			"min":[
				-334.8713684082031,
				-218.80628967285156,
				-202.79635620117188
			],
			"type":"VEC3"
		},
		{
			"bufferView":1,
			"componentType":5126,
			"count":518764,
			"type":"VEC3"
		},
		{
			"bufferView":2,
			"componentType":5126,
			"count":518764,
			"type":"VEC2"
		},
		{
			"bufferView":3,
			"componentType":5125,
			"count":753909,
			"type":"SCALAR"
		}
	],
	"bufferViews":[
		{
			"buffer":0,
			"byteLength":6225168,
			"byteOffset":0,
			"target":34962
		},
		{
			"buffer":0,
			"byteLength":6225168,
			"byteOffset":6225168,
			"target":34962
		},
		{
			"buffer":0,
			"byteLength":4150112,
			"byteOffset":12450336,
			"target":34962
		},
		{
			"buffer":0,
			"byteLength":3015636,
			"byteOffset":16600448,
			"target":34963
		}
	],
	"samplers":[
		{
			"magFilter":9729,
			"minFilter":9987
		}
	],
	"buffers":[
		{
			"byteLength":19616084,
			"uri":"construction-site.bin"
		}
	]
}
