{
	"asset":{
		"generator":"Khronos glTF Blender I/O v5.1.18",
		"version":"2.0"
	},
	"scene":0,
	"scenes":[
		{
			"name":"Scene",
			"nodes":[
				1
			]
		}
	],
	"nodes":[
		{
			"mesh":0,
			"name":"part"
		},
		{
			"children":[
				0
			],
			"name":"Empty"
		}
	],
	"materials":[
		{
			"doubleSided":true,
			"name":"bake",
			"pbrMetallicRoughness":{
				"baseColorTexture":{
					"index":0
				},
				"metallicFactor":0,
				"roughnessFactor":0.5
			}
		}
	],
	"meshes":[
		{
			"name":"3010.002",
			"primitives":[
				{
					"attributes":{
						"POSITION":0,
						"NORMAL":1,
						"TEXCOORD_0":2
					},
					"indices":3,
					"material":0
				}
			]
		}
	],
	"textures":[
		{
			"sampler":0,
			"source":0
		}
	],
	"images":[
		{
			"mimeType":"image/png",
			"name":"Untitled",
			"uri":"Untitled.png"
		}
	],
	"accessors":[
		{
			"bufferView":0,
			"componentType":5126,
			"count":519156,
			"max":[
				243.38316345214844,
				597.1972045898438,
				150.95883178710938
			],
			"min":[
				-340.0504455566406,
				-3.487091064453125,
				-225.95339965820312
			],
			"type":"VEC3"
		},
		{
			"bufferView":1,
			"componentType":5126,
			"count":519156,
			"type":"VEC3"
		},
		{
			"bufferView":2,
			"componentType":5126,
			"count":519156,
			"type":"VEC2"
		},
		{
			"bufferView":3,
			"componentType":5125,
			"count":754389,
			"type":"SCALAR"
		}
	],
	"bufferViews":[
		{
			"buffer":0,
			"byteLength":6229872,
			"byteOffset":0,
			"target":34962
		},
		{
			"buffer":0,
			"byteLength":6229872,
			"byteOffset":6229872,
			"target":34962
		},
		{
			"buffer":0,
			"byteLength":4153248,
			"byteOffset":12459744,
			"target":34962
		},
		{
			"buffer":0,
			"byteLength":3017556,
			"byteOffset":16612992,
			"target":34963
		}
	],
	"samplers":[
		{
			"magFilter":9729,
			"minFilter":9987
		}
	],
	"buffers":[
		{
			"byteLength":19630548,
			"uri":"construction-tower.bin"
		}
	]
}
