{
	"asset":{
		"generator":"Khronos glTF Blender I/O v5.1.18",
		"version":"2.0"
	},
	"scene":0,
	"scenes":[
		{
			"name":"Scene",
			"nodes":[
				1
			]
		}
	],
	"nodes":[
		{
			"mesh":0,
			"name":"part",
			"rotation":[
				0,
				-0.3826834559440613,
				0,
				0.9238795638084412
			],
			"translation":[
				137.09278869628906,
				114.28675079345703,
				-3.4822463989257812
			]
		},
		{
			"children":[
				0
			],
			"name":"Empty"
		}
	],
	"materials":[
		{
			"doubleSided":true,
			"name":"bake",
			"pbrMetallicRoughness":{
				"baseColorTexture":{
					"index":0
				},
				"metallicFactor":0,
				"roughnessFactor":0.5
			}
		}
	],
	"meshes":[
		{
			"name":"11211.002",
			"primitives":[
				{
					"attributes":{
						"POSITION":0,
						"NORMAL":1,
						"TEXCOORD_0":2
					},
					"indices":3,
					"material":0
				}
			]
		}
	],
	"textures":[
		{
			"sampler":0,
			"source":0
		}
	],
	"images":[
		{
			"mimeType":"image/png",
			"name":"Untitled",
			"uri":"Untitled.png"
		}
	],
	"accessors":[
		{
			"bufferView":0,
			"componentType":5126,
			"count":523245,
			"max":[
				267.74072265625,
				152.6932373046875,
				280.3156433105469
			],
			"min":[
				-275.20428466796875,
				-115.09952545166016,
				-262.6294860839844
			],
			"type":"VEC3"
		},
		{
			"bufferView":1,
			"componentType":5126,
			"count":523245,
			"type":"VEC3"
		},
		{
			"bufferView":2,
			"componentType":5126,
			"count":523245,
			"type":"VEC2"
		},
		{
			"bufferView":3,
			"componentType":5125,
			"count":775509,
			"type":"SCALAR"
		}
	],
	"bufferViews":[
		{
			"buffer":0,
			"byteLength":6278940,
			"byteOffset":0,
			"target":34962
		},
		{
			"buffer":0,
			"byteLength":6278940,
			"byteOffset":6278940,
			"target":34962
		},
		{
			"buffer":0,
			"byteLength":4185960,
			"byteOffset":12557880,
			"target":34962
		},
		{
			"buffer":0,
			"byteLength":3102036,
			"byteOffset":16743840,
			"target":34963
		}
	],
	"samplers":[
		{
			"magFilter":9729,
			"minFilter":9987
		}
	],
	"buffers":[
		{
			"byteLength":19845876,
			"uri":"venetian-houses.bin"
		}
	]
}
