{
	"asset":{
		"generator":"Khronos glTF Blender I/O v5.1.18",
		"version":"2.0"
	},
	"scene":0,
	"scenes":[
		{
			"name":"Scene",
			"nodes":[
				1
			]
		}
	],
	"nodes":[
		{
			"mesh":0,
			"name":"part",
			"rotation":[
				0.49999988079071045,
				0.4999998211860657,
				-0.5000001192092896,
				0.5000001788139343
			],
			"translation":[
				0,
				0,
				-7.62939453125e-06
			]
		},
		{
			"children":[
				0
			],
			"name":"Empty"
		}
	],
	"materials":[
		{
			"doubleSided":true,
			"name":"bake",
			"pbrMetallicRoughness":{
				"baseColorTexture":{
					"index":0
				},
				"metallicFactor":0,
				"roughnessFactor":0.5
			}
		}
	],
	"meshes":[
		{
			"name":"14716.002",
			"primitives":[
				{
					"attributes":{
						"POSITION":0,
						"NORMAL":1,
						"TEXCOORD_0":2
					},
					"indices":3,
					"material":0
				}
			]
		}
	],
	"textures":[
		{
			"sampler":0,
			"source":0
		}
	],
	"images":[
		{
			"mimeType":"image/png",
			"name":"Untitled",
			"uri":"Untitled.png"
		}
	],
	"accessors":[
		{
			"bufferView":0,
			"componentType":5126,
			"count":556869,
			"max":[
				127.92146301269531,
				128.3753662109375,
				-0.019985198974609375
			],
			"min":[
				-129.09718322753906,
				-128.679443359375,
				-373.1040954589844
			],
			"type":"VEC3"
		},
		{
			"bufferView":1,
			"componentType":5126,
			"count":556869,
			"type":"VEC3"
		},
		{
			"bufferView":2,
			"componentType":5126,
			"count":556869,
			"type":"VEC2"
		},
		{
			"bufferView":3,
			"componentType":5125,
			"count":785250,
			"type":"SCALAR"
		}
	],
	"bufferViews":[
		{
			"buffer":0,
			"byteLength":6682428,
			"byteOffset":0,
			"target":34962
		},
		{
			"buffer":0,
			"byteLength":6682428,
			"byteOffset":6682428,
			"target":34962
		},
		{
			"buffer":0,
			"byteLength":4454952,
			"byteOffset":13364856,
			"target":34962
		},
		{
			"buffer":0,
			"byteLength":3141000,
			"byteOffset":17819808,
			"target":34963
		}
	],
	"samplers":[
		{
			"magFilter":9729,
			"minFilter":9987
		}
	],
	"buffers":[
		{
			"byteLength":20960808,
			"uri":"police-station.bin"
		}
	]
}
