{
	"asset":{
		"generator":"Khronos glTF Blender I/O v5.1.18",
		"version":"2.0"
	},
	"scene":0,
	"scenes":[
		{
			"name":"Scene",
			"nodes":[
				1
			]
		}
	],
	"nodes":[
		{
			"mesh":0,
			"name":"part.1233",
			"rotation":[
				0.5000025629997253,
				-0.49999743700027466,
				0.49999743700027466,
				0.5000025629997253
			],
			"translation":[
				124,
				121.5999984741211,
				-63.999996185302734
			]
		},
		{
			"children":[
				0
			],
			"name":"Empty"
		}
	],
	"materials":[
		{
			"doubleSided":true,
			"name":"bake",
			"pbrMetallicRoughness":{
				"baseColorTexture":{
					"index":0
				},
				"metallicFactor":0,
				"roughnessFactor":0.5
			}
		}
	],
	"meshes":[
		{
			"name":"2431.005",
			"primitives":[
				{
					"attributes":{
						"POSITION":0,
						"NORMAL":1,
						"TEXCOORD_0":2
					},
					"indices":3,
					"material":0
				}
			]
		}
	],
	"textures":[
		{
			"sampler":0,
			"source":0
		}
	],
	"images":[
		{
			"mimeType":"image/png",
			"name":"Untitled",
			"uri":"Untitled.png"
		}
	],
	"accessors":[
		{
			"bufferView":0,
			"componentType":5126,
			"count":8074759,
			"max":[
				191.9600372314453,
				252.002197265625,
				122.98001098632812
			],
			"min":[
				-63.96254348754883,
				-11.959824562072754,
				-184.1999969482422
			],
			"type":"VEC3"
		},
		{
			"bufferView":1,
			"componentType":5126,
			"count":8074759,
			"type":"VEC3"
		},
		{
			"bufferView":2,
			"componentType":5126,
			"count":8074759,
			"type":"VEC2"
		},
		{
			"bufferView":3,
			"componentType":5125,
			"count":14424765,
			"type":"SCALAR"
		}
	],
	"bufferViews":[
		{
			"buffer":0,
			"byteLength":96897108,
			"byteOffset":0,
			"target":34962
		},
		{
			"buffer":0,
			"byteLength":96897108,
			"byteOffset":96897108,
			"target":34962
		},
		{
			"buffer":0,
			"byteLength":64598072,
			"byteOffset":193794216,
			"target":34962
		},
		{
			"buffer":0,
			"byteLength":57699060,
			"byteOffset":258392288,
			"target":34963
		}
	],
	"samplers":[
		{
			"magFilter":9729,
			"minFilter":9987
		}
	],
	"buffers":[
		{
			"byteLength":316091348,
			"uri":"parisian-restaurant.bin"
		}
	]
}
