{
	"asset":{
		"generator":"Khronos glTF Blender I/O v5.1.18",
		"version":"2.0"
	},
	"scene":0,
	"scenes":[
		{
			"name":"Scene",
			"nodes":[
				1
			]
		}
	],
	"nodes":[
		{
			"mesh":0,
			"name":"part",
			"rotation":[
				0.7071068286895752,
				0,
				0,
				0.7071068286895752
			],
			"translation":[
				0,
				-1.399999976158142,
				0
			]
		},
		{
			"children":[
				0
			],
			"name":"Empty"
		}
	],
	"materials":[
		{
			"doubleSided":true,
			"name":"bake",
			"pbrMetallicRoughness":{
				"baseColorTexture":{
					"index":0
				},
				"metallicFactor":0,
				"roughnessFactor":0.5
			}
		}
	],
	"meshes":[
		{
			"name":"3811.002",
			"primitives":[
				{
					"attributes":{
						"POSITION":0,
						"NORMAL":1,
						"TEXCOORD_0":2
					},
					"indices":3,
					"material":0
				}
			]
		}
	],
	"textures":[
		{
			"sampler":0,
			"source":0
		}
	],
	"images":[
		{
			"mimeType":"image/png",
			"name":"Untitled",
			"uri":"Untitled.png"
		}
	],
	"accessors":[
		{
			"bufferView":0,
			"componentType":5126,
			"count":574427,
			"max":[
				135.96005249023438,
				157.7644805908203,
				-0.019999980926513672
			],
			"min":[
				-128.5796356201172,
				-127.92145538330078,
				-307.23089599609375
			],
			"type":"VEC3"
		},
		{
			"bufferView":1,
			"componentType":5126,
			"count":574427,
			"type":"VEC3"
		},
		{
			"bufferView":2,
			"componentType":5126,
			"count":574427,
			"type":"VEC2"
		},
		{
			"bufferView":3,
			"componentType":5125,
			"count":805422,
			"type":"SCALAR"
		}
	],
	"bufferViews":[
		{
			"buffer":0,
			"byteLength":6893124,
			"byteOffset":0,
			"target":34962
		},
		{
			"buffer":0,
			"byteLength":6893124,
			"byteOffset":6893124,
			"target":34962
		},
		{
			"buffer":0,
			"byteLength":4595416,
			"byteOffset":13786248,
			"target":34962
		},
		{
			"buffer":0,
			"byteLength":3221688,
			"byteOffset":18381664,
			"target":34963
		}
	],
	"samplers":[
		{
			"magFilter":9729,
			"minFilter":9987
		}
	],
	"buffers":[
		{
			"byteLength":21603352,
			"uri":"parisian-restaurant.bin"
		}
	]
}
